<svg xmlns="http://www.w3.org/2000/svg" id="Layer_1" data-name="Layer 1" version="1.1" viewBox="0 0 598 598">
  <path d="M70 188h55v4l10 1v5h6q2 0 5 1.1v5h11v5h2.4q1.2 0 3.6 1.1c.1 3.3 0 6.7 0 10h10c.8 3.4 1.1 6.5 1 10 1.7.3 3.3.7 5 1v44h-6v-33h-5c-.3-3.3-.7-6.6-1-10-1.7-.3-3.3-.7-5-1v-10h-5v-6h-5v-5h-11c-.3-1.6-.7-3.3-1-5-1.7-.3-3.3-.7-5-1v-5h-22v-6H81v6H59v5h-5v2.4q0 2.6-1.1 3.6H42.8v5h-6v6h-5v10l-5 1c-.3 3.3-.7 6.6-1 10h-5v22h-11v-6h5v-21h5v-11h6v-6h5v-7.8q0-2.3 1.1-3.3h5v-5h5v-5c3.7-.9 7-1.1 10.8-1.1h5.2c.3-1.6.7-3.3 1-5h11v-5Z" class="cls-1"/>
  <path d="M106.6 257.9H119v6h27v11h-5v5h-6v6h-5v5h-22v-6h11l-1-4c-5.3-.3-10.6-.7-16-1q0-5 1-6c1.6 0 3.1-.1 4.7 0H124v-5H97v-5h5v-2.4c0-4 .5-3.5 4.7-3.7ZM4 269h22v5h2.4q2.6 0 3.6 1.1v10.1h5v6h6v7.7q0 2.3-1.1 3.3h-5v-5l-6-1v-5h-5v11h6v26.9c0 1.7 0 3.3-.1 5q-1 1-3.2 1.1H23q-1.4 0-3.2-1.1v-5h-10v-5h-6v-22H-1v-22h5v-11Zm6 6c-.3 3.3-.7 6.6-1 10-1.7.3-3.3.7-5 1v10h6v17h5v10h11v-10c-1.6-.3-3.3-.7-5-1-.3-5.3-.7-10.6-1-16h-4c-.3-6.9-.7-13.9-1-21h-5Zm11 5v11h5v-11h-5ZM152 274h10q2.3 0 1.1 3.6v2.4h5v5h2.4q2.6 0 3.6 1.1c0 2.5.1 5 .1 7.5v2.1q0 5.2-1.1 6.4h-5v5h-6c-.3-3.3-.7-6.6-1-10-1.3-.3-2.6-.7-4-1v-5h-5v-17ZM113 313h12v5h-6v5c-1.7.7-3.3 1.3-5 2v8c5.3.3 10.6.7 16 1v-5h11v-5h-6v-11h22v5h11v6h-5v5h-6v5h2.4q1.2 0 3.6 1.1c0 2.5.1 5 .1 7.5v2.1q0 5.2-1.1 6.4h-5v5h11v5h16v-10c1.7-.3 3.3-.7 5-1 .3-1.7.7-3.3 1-5h27v6h6v21h-6v6h-5v11h-28v-6h-16v-5h-11v-11h-16v-11h-22v-5h-5v5h-6v-16h5v-5h-7.8q-2.3 0-3.3-1.1v-5h6v-11h5v-5ZM37 334h11v11h5q1 1 1.1 3.6v2.4h5v5h5v5h2.4q1.2 0 3.6 1.1v5h11v5h16v6h17v4c1.7.3 3.3.7 5 1v5h33v-5h5v6h-5v5h-6v6h-11v5q-10.4.5-21 1c-.3 1.7-.7 3.3-1 5h-21v10c-1.7.3-3.3.7-5 1-.3 3.3-.7 6.6-1 10h-27c-.3-3.3-.7-6.6-1-10-1.6-.3-3.3-.7-5-1v-5h-5v-5h-2.4q-2.6 0-3.6-1.1v-5h-5v-5h-2.4q-2.6 0-3.6-1.1v-5h-5v-5h-2.4q-2.6 0-3.6-1.1v-5h-5v-5h-5v-11h-6v-5c2.1-.6 3.8-1 6-1v-5h16v11h6v5h5v6h6v5h5v5h5v-16h-5v-16h-6v-10h-5v-12Z" class="cls-1"/>
</svg>