<?xml version="1.0" encoding="UTF-8"?>
<svg id="Layer_1" data-name="Layer 1" xmlns="http://www.w3.org/2000/svg" version="1.1" viewBox="0 0 598 598">
  <defs>
    <style>
      .cls-1 {
        fill: #000;
        stroke-width: 0px;
      }
    </style>
  </defs>
  <path class="cls-1" d="M70,188h55v4q5,.5,10,1v5c2,0,4,0,6,0q2,0,5,1.1v5h11v5q1.2,0,2.4,0t3.6,1.1c.1,3.3,0,6.7,0,10h10c.8,3.4,1.1,6.5,1,10,1.7.3,3.3.7,5,1v44h-6v-33h-5c-.3-3.3-.7-6.6-1-10-1.7-.3-3.3-.7-5-1v-10h-5v-6h-5v-5h-11c-.3-1.6-.7-3.3-1-5-1.7-.3-3.3-.7-5-1v-5h-22v-6h-32v6h-22v5h-5c0,.8,0,1.6,0,2.4q0,2.6-1.1,3.6c-1.7,0-3.4,0-5.1,0-.9,0-1.8,0-2.8,0-.7,0-1.4,0-2.2,0v5h-6v6h-5v10q-2.5.5-5,1c-.3,3.3-.7,6.6-1,10h-5v22h-11v-6h5v-21h5v-11h6v-6h5c0-.7,0-1.4,0-2.2,0-.9,0-1.8,0-2.8,0-.9,0-1.8,0-2.8q0-2.3,1.1-3.3c1.7,0,3.3,0,5,0v-5h5v-5c3.7-.9,7-1.1,10.8-1.1,1,0,2,0,3,0q1.1,0,2.2,0c.3-1.6.7-3.3,1-5h11v-5Z"/>
  <path class="cls-1" d="M106.6,257.9c1.5,0,3,0,4.5,0,.8,0,1.5,0,2.3,0,1.9,0,3.8,0,5.6,0v6h27v11h-5v5h-6v6h-5v5h-22v-6h11l-1-4c-5.3-.3-10.6-.7-16-1q0-5,1-6c1.6,0,3.1-.1,4.7,0,.9,0,1.9,0,2.9,0,1,0,2,0,3,0,1,0,2,0,3,0,2.5,0,4.9,0,7.4,0v-5h-27v-5h5c0-.8,0-1.6,0-2.4,0-4,.5-3.5,4.7-3.7Z"/>
  <path class="cls-1" d="M4,269h22v5c.8,0,1.6,0,2.4,0q2.6,0,3.6,1.1c0,1.7,0,3.4,0,5.1,0,.9,0,1.8,0,2.8,0,.7,0,1.4,0,2.2h5v6h6c0,1.6,0,3.3,0,4.9,0,.9,0,1.8,0,2.8q0,2.3-1.1,3.3c-1.7,0-3.3,0-5,0v-5l-6-1v-5h-5v11h6c0,4.5,0,9.1,0,13.6,0,1.5,0,3.1,0,4.6,0,2.2,0,4.4,0,6.6,0,.7,0,1.4,0,2.1,0,1.7,0,3.3-.1,5q-1,1-3.2,1.1c-.9,0-1.8,0-2.8,0q-1.4,0-2.8,0t-3.2-1.1v-5h-10v-5h-6v-22H-1v-22h5v-11ZM10,275c-.3,3.3-.7,6.6-1,10-1.7.3-3.3.7-5,1v10h6v17h5v10h11v-10c-1.6-.3-3.3-.7-5-1-.3-5.3-.7-10.6-1-16h-4c-.3-6.9-.7-13.9-1-21h-5ZM21,280v11h5v-11h-5Z"/>
  <path class="cls-1" d="M152,274q7.7,0,10,0t1.1,3.6c0,.8,0,1.6,0,2.4h5v5c.8,0,1.6,0,2.4,0q2.6,0,3.6,1.1c0,2.5.1,5,.1,7.5q0,1.1,0,2.1,0,5.2-1.1,6.4c-1.7,0-3.3,0-5,0v5h-6c-.3-3.3-.7-6.6-1-10-1.3-.3-2.6-.7-4-1v-5h-5v-17Z"/>
  <path class="cls-1" d="M113,313h12v5h-6v5c-1.7.7-3.3,1.3-5,2v8c5.3.3,10.6.7,16,1v-5h11v-5h-6v-11h22v5h11v6h-5v5h-6v5q1.2,0,2.4,0t3.6,1.1c0,2.5.1,5,.1,7.5q0,1.1,0,2.1,0,5.2-1.1,6.4c-1.7,0-3.3,0-5,0v5h11v5h16v-10c1.7-.3,3.3-.7,5-1,.3-1.7.7-3.3,1-5h27v6h6v21h-6v6h-5v11h-28v-6h-16v-5h-11v-11h-16v-11h-22v-5h-5v5h-6v-16h5v-5c-.7,0-1.4,0-2.2,0-.9,0-1.8,0-2.8,0-.9,0-1.8,0-2.8,0q-2.3,0-3.3-1.1c0-1.7,0-3.3,0-5h6v-11h5v-5Z"/>
  <path class="cls-1" d="M37,334h11v11h5q1,1,1.1,3.6c0,.8,0,1.6,0,2.4h5v5h5v5q1.2,0,2.4,0t3.6,1.1v5h11v5h16v6h17v4c1.7.3,3.3.7,5,1v5h33v-5h5v6h-5v5h-6v6h-11v5q-10.4.5-21,1c-.3,1.7-.7,3.3-1,5h-21v10c-1.7.3-3.3.7-5,1-.3,3.3-.7,6.6-1,10h-27c-.3-3.3-.7-6.6-1-10-1.6-.3-3.3-.7-5-1v-5h-5v-5c-.8,0-1.6,0-2.4,0q-2.6,0-3.6-1.1c0-1.7,0-3.3,0-5h-5v-5c-.8,0-1.6,0-2.4,0q-2.6,0-3.6-1.1c0-1.7,0-3.3,0-5h-5v-5c-.8,0-1.6,0-2.4,0q-2.6,0-3.6-1.1c0-1.7,0-3.3,0-5h-5v-5h-5v-11h-6v-5c2.1-.6,3.8-1,6-1v-5h16v11h6v5h5v6h6v5h5v5h5v-16h-5v-16h-6v-10h-5v-12Z"/>
</svg>