<?xml version="1.0" standalone="no"?>
<!DOCTYPE svg PUBLIC "-//W3C//DTD SVG 20010904//EN"
 "http://www.w3.org/TR/2001/REC-SVG-20010904/DTD/svg10.dtd">
<svg version="1.0" xmlns="http://www.w3.org/2000/svg"
 width="1024.000000pt" height="1024.000000pt" viewBox="0 0 1024.000000 1024.000000"
 preserveAspectRatio="xMidYMid meet">
<metadata>
Created by potrace 1.11, written by Peter Selinger 2001-2013
</metadata>
<g transform="translate(0.000000,1024.000000) scale(0.100000,-0.100000)"
fill="#000000" stroke="none">
<path d="M8117 9624 c-1 -2 -36 -5 -77 -8 -41 -4 -88 -8 -105 -10 -64 -9 -122
-17 -175 -26 -30 -6 -75 -12 -100 -16 -25 -3 -52 -8 -60 -11 -8 -3 -28 -7 -45
-10 -16 -3 -31 -9 -33 -13 -2 -5 -10 -6 -18 -3 -8 3 -36 0 -62 -7 -26 -6 -56
-14 -67 -16 -30 -6 -51 -11 -159 -39 -54 -14 -105 -24 -113 -21 -8 3 -11 1 -8
-4 3 -6 -3 -10 -14 -10 -30 0 -28 0 -58 -15 -21 -11 -30 -12 -42 -2 -11 9 -13
9 -8 0 4 -6 3 -14 -3 -18 -5 -3 -10 0 -10 7 0 9 -3 9 -10 -2 -5 -8 -14 -16
-20 -16 -5 -1 -12 -3 -15 -4 -3 -1 -9 -4 -15 -5 -5 -1 -13 -4 -17 -5 -5 -1
-12 -2 -17 -1 -4 1 -14 -4 -22 -10 -8 -6 -14 -8 -14 -4 0 4 -11 0 -25 -9 -14
-9 -25 -14 -25 -12 0 3 -25 -4 -55 -14 -30 -10 -55 -16 -55 -13 0 3 -7 0 -15
-7 -12 -10 -18 -10 -30 0 -13 11 -14 10 -9 -4 4 -9 3 -16 -2 -15 -5 2 -27 -5
-49 -15 -22 -10 -48 -19 -57 -21 -9 -2 -26 -9 -38 -15 -11 -6 -25 -8 -30 -5
-6 3 -10 2 -10 -3 0 -5 -9 -12 -20 -15 -23 -6 -27 8 -5 17 8 3 15 13 14 23 0
11 -2 13 -6 5 -9 -23 -62 -76 -69 -69 -4 3 -19 -3 -35 -14 -15 -10 -31 -18
-36 -17 -4 1 -19 -4 -32 -11 -22 -12 -26 -11 -39 5 -12 15 -14 16 -9 2 6 -17
-8 -34 -33 -40 -8 -2 -14 4 -15 12 0 9 -10 15 -25 15 -16 0 -24 -5 -22 -14 2
-8 -3 -11 -11 -8 -17 7 -37 -11 -37 -33 1 -10 5 -8 13 8 10 17 15 20 25 10 9
-9 12 -9 13 2 1 8 1 18 0 23 0 4 7 7 17 7 10 0 19 -7 19 -15 0 -8 -6 -15 -14
-15 -7 0 -13 -4 -13 -10 0 -5 -9 -10 -19 -10 -11 0 -21 -5 -23 -11 -2 -5 -11
-7 -21 -4 -9 4 -15 11 -12 15 3 4 -2 13 -10 20 -10 9 -15 9 -15 1 0 -6 5 -11
12 -11 16 0 1 -13 -18 -16 -10 -2 -14 3 -10 11 3 9 0 12 -10 8 -7 -3 -14 -9
-14 -14 0 -9 4 -10 39 -13 26 -1 39 -16 15 -16 -11 0 -26 -6 -33 -12 -8 -7
-11 -8 -8 -3 2 6 -7 19 -21 29 -14 11 -22 15 -19 9 17 -27 -17 -52 -39 -30
-10 9 -26 9 -21 0 8 -12 -217 -9 -225 2 -5 6 -8 5 -8 -4 0 -11 -3 -11 -17 0
-9 8 -14 9 -10 3 4 -7 -11 -12 -46 -13 -53 -2 -81 -4 -202 -16 -72 -6 -121
-12 -165 -20 -14 -2 -45 -7 -70 -10 -74 -10 -308 -62 -430 -95 -349 -95 -699
-244 -1015 -433 -124 -74 -260 -163 -310 -204 -5 -5 -35 -26 -65 -48 -178
-130 -413 -347 -584 -540 -44 -50 -82 -92 -86 -95 -10 -9 -144 -183 -196 -255
-173 -241 -355 -571 -459 -835 -21 -52 -43 -108 -50 -125 -37 -88 -137 -431
-161 -550 -2 -11 -8 -43 -14 -71 -11 -51 -14 -71 -24 -134 -3 -19 -8 -46 -11
-60 -3 -14 -6 -39 -7 -57 -1 -18 -4 -31 -7 -29 -3 2 -7 -30 -8 -72 -2 -55 -7
-80 -20 -94 -14 -15 -14 -19 -3 -16 10 2 14 -4 12 -17 -1 -11 -3 -57 -5 -102
-1 -46 -4 -83 -7 -83 -3 0 -5 -36 -5 -80 0 -83 -16 -125 -32 -82 -8 21 -9 21
-20 3 -10 -15 -9 -18 5 -17 9 0 18 -8 20 -18 3 -15 0 -18 -18 -13 -15 4 -19 2
-12 -6 12 -14 -4 -61 -17 -53 -5 3 -7 -3 -4 -14 3 -11 0 -20 -6 -20 -6 0 -11
-6 -12 -12 -1 -24 -45 -108 -53 -101 -4 5 -7 3 -5 -2 3 -17 -33 -95 -42 -89
-5 3 -6 -1 -3 -9 3 -8 -2 -22 -11 -31 -9 -9 -14 -16 -10 -16 3 0 -2 -14 -10
-30 -9 -17 -20 -28 -24 -25 -5 3 -7 -4 -4 -15 3 -12 -4 -28 -23 -45 -15 -14
-20 -23 -11 -19 15 5 15 3 1 -25 -9 -17 -20 -29 -25 -26 -5 4 -6 -1 -3 -9 3
-9 1 -16 -6 -16 -6 0 -8 -4 -5 -10 3 -5 -1 -20 -9 -32 -9 -12 -16 -30 -16 -38
0 -9 -8 -25 -18 -36 -10 -11 -17 -25 -14 -32 2 -8 -3 -10 -15 -6 -13 4 -15 3
-5 -4 10 -7 11 -14 4 -28 -6 -11 -17 -35 -25 -54 -42 -101 -51 -119 -60 -113
-6 3 -7 1 -3 -6 9 -15 -3 -53 -15 -46 -5 3 -6 -1 -3 -9 6 -15 -29 -100 -37
-91 -3 3 -5 -5 -4 -18 1 -12 -1 -26 -5 -32 -5 -5 -17 -37 -29 -70 -11 -33 -25
-59 -30 -58 -6 2 -8 -3 -6 -10 3 -6 -15 -68 -39 -137 -24 -69 -44 -128 -45
-132 -1 -4 -3 -13 -5 -20 -47 -149 -119 -407 -129 -463 -2 -11 -7 -31 -10 -45
-4 -14 -8 -38 -11 -55 -2 -16 -9 -51 -15 -77 -10 -45 -34 -196 -45 -288 -25
-200 -25 -529 -1 -651 3 -13 7 -43 10 -67 5 -54 54 -253 65 -267 5 -5 9 -13 9
-17 8 -47 92 -214 146 -287 37 -50 176 -181 186 -175 7 4 9 3 6 -3 -4 -5 6
-16 21 -24 15 -8 36 -22 47 -32 11 -10 28 -16 37 -13 10 2 15 0 12 -5 -7 -12
142 -81 178 -83 14 0 24 -4 22 -8 -3 -4 8 -10 23 -14 15 -3 51 -12 78 -19 28
-7 67 -16 89 -19 21 -4 42 -9 46 -11 5 -3 12 0 16 6 4 8 8 8 13 0 10 -15 335
-36 363 -24 4 2 47 5 95 8 83 4 183 13 221 19 9 2 37 7 62 11 25 4 52 9 60 10
8 1 35 6 60 10 25 4 50 11 56 16 7 6 16 9 20 7 16 -4 163 35 159 42 -3 4 7 6
20 4 14 -1 25 2 25 7 0 6 4 8 9 5 17 -11 40 5 36 25 -2 11 0 17 6 14 5 -4 7
-10 4 -15 -3 -5 -1 -11 5 -15 5 -3 10 -1 10 5 0 6 4 9 9 6 11 -7 23 22 14 36
-3 7 -1 8 6 4 7 -5 9 -16 5 -29 -6 -19 -5 -20 10 -8 9 7 16 10 16 6 0 -4 7 -2
15 5 8 7 15 9 15 5 0 -4 6 -3 13 3 12 10 18 12 37 12 6 0 9 3 9 8 -3 20 2 33
11 27 6 -4 8 -10 5 -15 -4 -7 3 -7 34 -1 2 1 -2 7 -8 15 -9 10 -9 16 -1 21 6
4 9 13 6 21 -4 10 0 14 11 12 14 -2 18 5 19 42 1 37 0 42 -10 26 -20 -34 -45
-61 -46 -50 0 6 11 28 25 48 14 21 21 35 16 32 -12 -8 -61 14 -61 27 0 5 8 6
17 1 10 -4 30 -7 46 -8 19 0 26 -4 22 -14 -2 -7 0 -10 5 -7 6 3 10 13 10 21 0
11 -8 13 -32 9 -27 -5 -30 -4 -18 10 8 10 9 15 1 15 -6 0 -11 -5 -11 -11 0 -6
-8 -8 -17 -5 -10 3 -25 1 -33 -4 -13 -9 -13 -11 0 -20 10 -7 11 -10 2 -10 -7
0 -18 11 -24 25 -9 19 -14 22 -25 14 -7 -6 -13 -8 -13 -3 0 4 -5 3 -11 -3 -6
-6 -18 -9 -25 -6 -8 3 -14 0 -14 -6 0 -7 -6 -11 -12 -10 -29 3 -61 -2 -54 -8
12 -12 76 -11 69 0 -4 6 -1 7 7 2 9 -6 11 -4 5 5 -6 9 -4 11 5 5 7 -4 16 -2
22 6 8 11 9 10 4 -3 -3 -10 -1 -20 4 -23 13 -8 13 -25 0 -25 -5 0 -10 7 -10
15 0 8 -5 15 -11 15 -5 0 -7 -5 -3 -12 4 -6 3 -8 -3 -5 -6 4 -13 1 -16 -6 -6
-16 19 -52 27 -38 3 5 0 11 -6 14 -7 2 -9 8 -5 13 10 11 27 -15 20 -32 -3 -9
2 -12 16 -9 12 2 19 0 16 -5 -3 -6 2 -7 12 -4 10 3 14 2 8 -3 -5 -4 -12 -15
-13 -23 -2 -8 0 -12 4 -8 8 9 34 -9 34 -23 0 -5 -12 -2 -26 8 -27 17 -27 17
-15 -5 10 -18 9 -23 -4 -28 -9 -4 -14 -12 -11 -20 3 -8 -2 -11 -15 -9 -13 3
-17 0 -14 -8 4 -7 0 -3 -9 7 -8 10 -13 23 -9 29 3 5 -3 7 -15 3 -13 -5 -22 -1
-26 10 -5 14 -4 15 8 5 12 -10 15 -9 13 8 -1 12 -7 19 -13 17 -7 -3 -15 2 -18
10 -3 8 -9 14 -13 13 -4 -1 -15 -1 -23 0 -12 1 -12 4 3 12 9 5 17 15 17 20 0
6 -4 7 -10 4 -5 -3 -10 -2 -10 3 0 6 7 13 16 16 13 5 14 9 4 21 -7 8 -17 15
-22 15 -6 0 -6 -6 1 -14 9 -11 8 -15 -5 -20 -21 -8 -24 -8 -24 5 0 5 4 8 9 4
6 -3 9 4 8 14 -1 15 -6 19 -22 15 -12 -3 -28 -6 -36 -7 -8 -2 -20 -6 -26 -10
-7 -5 -13 -5 -13 -1 0 3 -6 1 -14 -5 -7 -6 -12 -22 -10 -36 1 -14 -1 -23 -6
-20 -4 2 -6 16 -5 30 2 14 3 25 2 25 -15 0 -154 -33 -166 -39 -9 -5 -19 -9
-24 -9 -4 0 -35 -3 -70 -8 -86 -10 -284 -12 -359 -3 -71 9 -97 14 -173 33 -29
7 -65 21 -113 42 -29 13 -57 24 -62 24 -6 0 -10 5 -10 10 0 6 -5 10 -10 10 -6
0 -37 19 -68 42 -31 24 -61 42 -65 40 -5 -1 -6 1 -3 6 3 5 -9 22 -25 38 -46
43 -112 140 -148 217 -50 108 -96 284 -93 360 0 9 -2 17 -6 17 -8 0 -7 198 2
290 8 84 12 112 26 188 6 34 8 66 5 71 -3 5 -1 11 4 13 5 1 12 17 14 33 3 17
16 66 28 110 12 44 22 89 23 100 1 11 3 22 6 25 5 4 93 254 104 295 2 6 9 24
15 40 7 17 14 35 15 40 1 6 12 32 24 59 12 27 22 51 22 53 0 3 14 35 31 71 17
37 32 77 33 89 0 12 3 19 5 17 5 -5 141 271 141 286 0 28 20 -6 45 -77 143
-402 400 -848 700 -1210 85 -103 350 -376 445 -458 164 -141 366 -290 550
-405 320 -200 761 -390 1105 -476 77 -19 227 -54 250 -57 17 -3 53 -10 82 -16
29 -6 74 -13 100 -16 26 -4 62 -9 78 -11 17 -3 48 -7 69 -10 22 -2 72 -7 110
-11 176 -18 695 -8 876 17 36 5 88 12 115 16 41 5 306 59 392 79 78 18 281 82
385 121 821 304 1499 834 1990 1554 130 192 170 260 287 495 65 131 191 428
191 449 0 3 -516 6 -1147 6 l-1148 0 -30 -58 c-198 -382 -580 -668 -1035 -777
-285 -68 -641 -88 -855 -49 -367 66 -642 207 -884 454 -294 301 -493 740 -527
1163 l-7 87 2917 0 2916 0 1 38 c0 20 2 46 5 57 18 95 26 598 11 765 -10 110
-16 168 -22 205 -2 17 -7 53 -11 80 -3 28 -10 69 -15 93 -5 23 -12 59 -15 80
-3 20 -14 75 -25 122 -139 597 -391 1129 -759 1605 -43 55 -88 111 -99 125
-104 119 -139 157 -226 245 -394 395 -833 694 -1315 895 -69 29 -126 54 -128
55 -1 1 37 17 85 35 49 19 93 36 98 40 6 4 46 19 90 34 44 15 87 30 95 33 20
8 141 45 190 58 48 13 98 26 120 31 14 3 41 9 60 14 19 5 53 11 74 15 21 3 48
7 60 10 166 36 528 38 656 5 19 -5 48 -11 63 -14 89 -16 303 -106 354 -150 7
-6 35 -29 61 -51 27 -22 66 -63 88 -91 21 -29 43 -49 48 -46 5 3 6 1 3 -4 -3
-6 7 -37 23 -69 16 -33 30 -67 30 -76 0 -9 3 -19 7 -23 4 -3 8 -12 9 -19 1 -7
7 -41 14 -77 11 -60 15 -270 6 -315 -2 -11 -7 -42 -10 -70 -13 -99 -48 -262
-65 -309 -6 -14 -8 -26 -5 -26 2 0 0 -8 -5 -18 -6 -11 -13 -31 -16 -45 -3 -15
-8 -39 -11 -54 -4 -16 -6 -35 -7 -43 0 -8 -5 -21 -11 -29 -9 -11 -7 -13 9 -8
24 8 53 -7 36 -17 -6 -4 -11 -2 -11 3 0 6 -4 11 -9 11 -5 0 -8 -11 -8 -24 0
-23 1 -24 22 -10 12 8 25 11 30 7 4 -5 5 0 2 10 -4 11 -3 16 4 12 6 -4 8 -14
5 -22 -4 -9 -1 -13 6 -11 7 3 13 13 13 24 0 10 7 19 15 19 8 0 14 -6 12 -13
-3 -16 15 -16 21 1 2 6 4 -1 4 -16 0 -27 -27 -54 -41 -39 -4 3 -4 -1 0 -11 3
-10 1 -17 -5 -17 -6 0 -10 3 -10 8 3 18 -2 32 -12 32 -5 0 -8 -4 -5 -8 3 -5
-1 -9 -9 -9 -8 0 -15 4 -15 9 0 4 5 8 11 8 5 0 7 5 3 11 -4 8 -12 3 -20 -12
-8 -15 -13 -18 -14 -9 0 11 -2 12 -8 3 -6 -9 -11 -7 -20 7 -8 13 -9 20 -1 20
5 0 7 5 4 10 -10 16 -23 11 -20 -7 1 -10 -2 -24 -8 -30 -6 -9 -6 -13 1 -13 6
0 13 6 15 13 4 9 6 9 6 0 1 -7 -8 -17 -20 -24 -15 -7 -18 -14 -11 -21 6 -6 8
-18 5 -27 -4 -14 -3 -14 6 -1 6 8 11 13 12 10 0 -3 2 -13 4 -23 2 -13 -1 -17
-11 -13 -8 3 -13 2 -9 -3 3 -5 0 -11 -7 -13 -7 -3 -5 -7 6 -11 9 -4 15 -3 12
2 -3 5 1 12 9 15 8 3 15 9 14 13 -3 19 2 33 11 33 11 0 9 -28 -5 -50 -8 -13
-7 -13 8 -1 15 12 17 11 18 -5 0 -11 3 -14 6 -6 3 7 0 19 -7 26 -8 10 -8 16 0
21 6 4 8 16 4 28 -6 21 -5 21 12 5 13 -13 15 -20 6 -30 -6 -8 -7 -19 -3 -27 6
-10 10 -8 16 6 5 10 7 24 6 32 -1 8 2 10 10 5 7 -4 10 -3 6 3 -4 6 0 14 9 17
12 5 15 2 9 -11 -4 -10 -8 -24 -8 -30 0 -7 -4 -13 -8 -13 -4 0 -10 -7 -13 -16
-4 -12 0 -11 20 5 14 11 32 17 41 14 11 -4 14 -3 9 6 -4 7 -17 9 -29 6 -17 -5
-19 -4 -7 4 8 6 23 8 33 5 16 -5 18 -2 12 16 -5 17 -4 20 5 15 9 -5 11 -4 6 4
-4 6 -3 17 2 24 15 20 22 58 9 50 -7 -3 -5 2 4 13 16 19 18 27 22 83 1 16 5
27 10 24 4 -2 7 4 7 14 0 11 4 23 10 29 5 5 12 23 14 39 3 17 7 41 10 55 5 22
15 75 31 165 2 17 7 39 9 50 18 92 28 379 14 408 -5 10 -5 17 0 17 6 0 6 18 2
43 -5 23 -11 65 -14 92 -7 63 -15 116 -22 135 -3 8 -8 26 -10 40 -14 72 -83
246 -140 350 -99 182 -316 371 -524 458 -14 5 -41 17 -60 25 -28 12 -77 28
-130 42 -12 3 -118 26 -140 30 -14 3 -36 7 -50 9 -65 13 -169 19 -323 20 -92
1 -169 1 -170 0z m-194 -579 c-3 -9 -8 -14 -10 -11 -3 3 -2 9 2 15 9 16 15 13
8 -4z m-1953 -5 c0 -5 -2 -10 -4 -10 -3 0 -8 5 -11 10 -3 6 -1 10 4 10 6 0 11
-4 11 -10z m1360 -200 c0 -5 -2 -10 -4 -10 -3 0 -8 5 -11 10 -3 6 -1 10 4 10
6 0 11 -4 11 -10z m2116 -1255 c-1 -8 -8 -21 -16 -28 -10 -10 -11 -9 -4 3 5 8
9 18 10 23 3 14 4 17 8 17 2 0 3 -7 2 -15z m97 -20 c-7 -21 -12 -19 -10 4 0
11 5 18 9 15 4 -3 5 -11 1 -19z m28 -8 c-6 -8 -9 -16 -6 -19 3 -2 -2 -5 -10
-5 -13 0 -13 3 2 19 19 21 31 25 14 5z m-86 -18 c-4 -5 -12 -9 -18 -8 -9 0 -8
2 1 6 6 2 9 10 6 15 -4 7 -2 8 5 4 6 -4 9 -12 6 -17z m-18 -22 c2 -3 -8 -4
-22 -4 -14 0 -25 3 -25 8 0 7 38 4 47 -4z m73 3 c12 -7 10 -9 -8 -7 -12 0 -22
5 -22 9 0 11 12 10 30 -2z m13 -53 c3 -8 2 -20 -3 -26 -5 -9 -7 -4 -7 13 0 29
2 32 10 13z m-88 -57 c-2 -8 -4 -17 -4 -19 -1 -2 -10 4 -20 13 -18 17 -39 7
-27 -12 8 -14 -42 -8 -56 7 -7 8 -8 11 -2 8 7 -4 14 -1 17 6 3 8 22 13 50 13
35 0 44 -4 42 -16z m70 -6 c1 -12 -5 -20 -15 -20 -14 0 -18 16 -11 44 3 12 25
-8 26 -24z m-3525 -229 c267 -27 573 -138 794 -287 120 -81 116 -78 241 -203
127 -127 129 -130 211 -252 155 -232 257 -512 289 -798 3 -33 7 -64 8 -70 1
-7 -562 -11 -1756 -13 l-1757 -2 4 22 c3 13 15 73 26 133 29 150 89 326 162
474 272 554 764 920 1343 996 92 12 319 12 435 0z m-2923 -6092 c-10 -9 29
-34 45 -28 7 3 20 0 28 -5 13 -9 13 -11 0 -20 -8 -5 -11 -10 -7 -10 4 0 3 -9
-4 -21 -18 -34 5 -45 28 -15 l21 26 0 -24 c0 -15 -6 -23 -17 -22 -10 1 -15 -5
-13 -16 1 -9 -2 -19 -8 -23 -8 -5 -7 -12 2 -23 12 -15 11 -16 -5 -3 -9 8 -15
16 -12 19 3 3 -4 12 -16 20 -11 8 -18 20 -15 28 5 13 -27 38 -36 28 -3 -3 -8
2 -11 10 -4 10 2 20 16 26 21 11 21 11 3 -4 -11 -9 -15 -16 -10 -16 6 0 16 6
23 13 11 10 13 9 8 -5 -3 -10 -1 -20 5 -24 7 -5 8 -2 3 6 -6 9 -4 11 5 5 9 -5
11 -4 6 3 -4 7 -2 10 6 9 7 -2 9 -2 5 1 -4 2 -2 11 5 20 12 15 11 16 -4 3 -15
-11 -21 -11 -33 -1 -8 7 -15 9 -15 5 0 -4 -6 -2 -14 5 -16 12 -11 40 7 40 6 0
7 -3 4 -7z m-187 -47 c0 -2 -7 -6 -15 -10 -8 -3 -15 -1 -15 4 0 6 7 10 15 10
8 0 15 -2 15 -4z m-31 -29 c-2 -1 -15 -11 -29 -22 l-25 -20 19 23 c11 12 24
22 29 22 6 0 8 -1 6 -3z m34 -16 c-4 -14 14 -15 20 -1 3 6 4 5 3 -2 -3 -14
-26 -18 -25 -4 0 5 -5 13 -13 18 -10 8 -10 9 2 5 8 -2 14 -10 13 -16z m-116
-38 c0 -9 -4 -10 -14 -2 -7 6 -13 12 -13 14 0 1 6 2 13 2 8 0 14 -6 14 -14z
m103 7 c0 -5 -2 -10 -4 -10 -3 0 -8 5 -11 10 -3 6 -1 10 4 10 6 0 11 -4 11
-10z m-142 -25 c-3 -3 -9 2 -12 12 -6 14 -5 15 5 6 7 -7 10 -15 7 -18z m185 8
c-7 -2 -19 -2 -25 0 -7 3 -2 5 12 5 14 0 19 -2 13 -5z m37 -13 c0 -5 -4 -10
-10 -10 -5 0 -10 5 -10 10 0 6 5 10 10 10 6 0 10 -4 10 -10z m-80 -35 c0 -5
-5 -3 -10 5 -5 8 -10 20 -10 25 0 6 5 3 10 -5 5 -8 10 -19 10 -25z m20 20 c0
-8 -2 -15 -4 -15 -2 0 -6 7 -10 15 -3 8 -1 15 4 15 6 0 10 -7 10 -15z m202
-31 c-9 -16 -10 -14 -9 8 1 15 6 23 11 18 4 -4 4 -16 -2 -26z m-141 12 c1 -6
1 -14 0 -18 0 -5 4 -8 9 -8 6 0 10 -5 10 -10 0 -6 -8 -5 -20 2 -11 7 -15 15
-9 19 7 4 5 9 -5 12 -11 4 -16 1 -16 -10 0 -9 -3 -14 -6 -10 -4 3 -4 12 -1 20
6 16 36 18 38 3z m-150 -23 c13 -16 12 -17 -3 -4 -17 13 -22 21 -14 21 2 0 10
-8 17 -17z m97 -8 c-3 -3 -9 2 -12 12 -6 14 -5 15 5 6 7 -7 10 -15 7 -18z
m-118 -1 c0 -8 -19 -13 -24 -6 -3 5 1 9 9 9 8 0 15 -2 15 -3z m90 -29 c0 -5
-5 -3 -10 5 -5 8 -10 20 -10 25 0 6 5 3 10 -5 5 -8 10 -19 10 -25z m-49 -8
c-10 -9 -11 -8 -5 6 3 10 9 15 12 12 3 -3 0 -11 -7 -18z"/>
<path d="M9386 7408 c3 -5 10 -6 15 -3 13 9 11 12 -6 12 -8 0 -12 -4 -9 -9z"/>
<path d="M3126 961 c-4 -5 -2 -12 3 -15 5 -4 12 -2 15 3 4 5 2 12 -3 15 -5 4
-12 2 -15 -3z"/>
<path d="M7155 9520 c3 -5 8 -10 11 -10 2 0 4 5 4 10 0 6 -5 10 -11 10 -5 0
-7 -4 -4 -10z"/>
<path d="M6679 9433 c-13 -16 -12 -17 4 -4 9 7 17 15 17 17 0 8 -8 3 -21 -13z"/>
<path d="M6736 9442 c-3 -5 1 -9 9 -9 8 0 12 4 9 9 -3 4 -7 8 -9 8 -2 0 -6 -4
-9 -8z"/>
<path d="M6615 9420 c-3 -5 -1 -10 4 -10 6 0 11 5 11 10 0 6 -2 10 -4 10 -3 0
-8 -4 -11 -10z"/>
<path d="M6830 9422 c0 -5 7 -9 15 -9 8 0 12 4 9 9 -3 4 -9 8 -15 8 -5 0 -9
-4 -9 -8z"/>
<path d="M6699 9393 c-13 -17 -13 -17 6 -3 11 8 22 16 24 17 2 2 0 3 -6 3 -6
0 -17 -8 -24 -17z"/>
<path d="M6799 9408 c-6 -20 -6 -39 0 -42 4 -3 7 6 7 20 0 20 -4 32 -7 22z"/>
<path d="M6723 9378 c-12 -20 -12 -37 -1 -45 7 -4 8 -1 3 7 -6 10 -3 12 11 7
18 -7 18 -6 2 6 -13 11 -15 16 -6 25 7 7 9 12 6 12 -4 0 -10 -6 -15 -12z"/>
<path d="M6656 9363 c-6 -14 -5 -15 5 -6 7 7 10 15 7 18 -3 3 -9 -2 -12 -12z"/>
<path d="M6597 9351 c-10 -14 -10 -14 4 -4 9 7 18 10 21 7 3 -3 8 -1 12 4 9
16 -24 9 -37 -7z"/>
<path d="M6756 9358 c3 -5 10 -6 15 -3 13 9 11 12 -6 12 -8 0 -12 -4 -9 -9z"/>
<path d="M6430 9346 c0 -2 7 -7 16 -10 8 -3 12 -2 9 4 -6 10 -25 14 -25 6z"/>
<path d="M6480 9340 c-9 -6 -10 -10 -3 -10 6 0 15 5 18 10 8 12 4 12 -15 0z"/>
<path d="M6516 9334 c-9 -8 -16 -20 -16 -26 0 -6 1 -9 3 -7 1 2 11 14 21 27
22 25 16 30 -8 6z"/>
<path d="M6547 9327 c-3 -9 4 -13 24 -12 15 0 31 4 34 7 4 4 -1 5 -12 4 -10
-2 -23 1 -29 6 -7 5 -14 4 -17 -5z"/>
<path d="M6623 9330 c2 -8 10 -15 17 -15 7 0 15 7 17 15 4 13 3 13 -6 0 -10
-13 -12 -13 -22 0 -9 13 -10 13 -6 0z"/>
<path d="M6353 9315 c0 -8 4 -12 9 -9 5 3 6 10 3 15 -9 13 -12 11 -12 -6z"/>
<path d="M6445 9299 c-4 -6 -13 -8 -19 -6 -7 3 -13 -1 -13 -8 0 -10 5 -11 18
-4 18 9 35 29 25 29 -3 0 -8 -5 -11 -11z"/>
<path d="M6375 9289 c-4 -6 -5 -12 -2 -15 2 -3 7 2 10 11 7 17 1 20 -8 4z"/>
<path d="M6552 9284 c-7 -8 -8 -14 -3 -14 10 0 25 19 20 25 -2 1 -10 -3 -17
-11z"/>
<path d="M6347 9271 c-4 -17 -3 -21 5 -13 5 5 8 16 6 23 -3 8 -7 3 -11 -10z"/>
<path d="M6459 9283 c-1 -5 -1 -12 0 -17 1 -5 -5 -6 -14 -3 -8 4 -15 2 -15 -4
0 -18 33 -5 36 14 1 9 0 17 -2 17 -2 0 -5 -3 -5 -7z"/>
<path d="M6130 9260 c0 -5 5 -10 11 -10 5 0 7 5 4 10 -3 6 -8 10 -11 10 -2 0
-4 -4 -4 -10z"/>
<path d="M6276 9255 c-9 -26 -7 -32 5 -12 6 10 9 21 6 23 -2 3 -7 -2 -11 -11z"/>
<path d="M6510 9259 c0 -5 5 -7 10 -4 6 3 10 8 10 11 0 2 -4 4 -10 4 -5 0 -10
-5 -10 -11z"/>
<path d="M6196 9247 c3 -10 9 -15 12 -12 3 3 0 11 -7 18 -10 9 -11 8 -5 -6z"/>
<path d="M6295 9230 c-3 -6 1 -13 9 -16 9 -3 13 -11 9 -18 -4 -6 1 -5 10 3 12
9 17 10 17 2 0 -8 4 -8 14 1 10 9 11 15 2 20 -6 4 -15 3 -20 -2 -11 -11 -38
-1 -30 11 3 5 3 9 0 9 -3 0 -8 -5 -11 -10z"/>
<path d="M6262 9217 c10 -8 15 -17 11 -20 -3 -4 -1 -7 6 -7 8 0 11 -7 6 -17
-5 -14 -3 -15 5 -7 15 15 -1 49 -27 58 -17 6 -17 5 -1 -7z"/>
<path d="M6036 9207 c3 -10 9 -15 12 -12 3 3 0 11 -7 18 -10 9 -11 8 -5 -6z"/>
<path d="M6114 9195 c1 -14 8 -30 16 -37 12 -11 12 -10 3 2 -6 8 -9 23 -8 32
2 10 0 20 -4 23 -4 2 -7 -7 -7 -20z"/>
<path d="M5937 9195 c-4 -8 -3 -16 1 -19 4 -3 9 4 9 15 2 23 -3 25 -10 4z"/>
<path d="M6165 9200 c-3 -5 -1 -10 4 -10 6 0 11 5 11 10 0 6 -2 10 -4 10 -3 0
-8 -4 -11 -10z"/>
<path d="M6232 9203 c-10 -4 -7 -9 8 -20 12 -8 24 -12 27 -9 3 3 -2 8 -11 12
-9 3 -13 10 -10 15 6 10 5 10 -14 2z"/>
<path d="M6070 9180 c-9 -6 -10 -10 -3 -10 6 0 15 5 18 10 8 12 4 12 -15 0z"/>
<path d="M6190 9180 c0 -5 5 -10 10 -10 6 0 10 5 10 10 0 6 -4 10 -10 10 -5 0
-10 -4 -10 -10z"/>
<path d="M6085 9159 c-4 -6 -4 -13 -1 -16 3 -4 6 -1 6 6 0 7 5 9 12 5 7 -4 8
-3 4 4 -9 15 -13 15 -21 1z"/>
<path d="M6155 9159 c-11 -16 -1 -19 13 -3 7 8 8 14 3 14 -5 0 -13 -5 -16 -11z"/>
<path d="M6220 9166 c0 -2 7 -7 16 -10 8 -3 12 -2 9 4 -6 10 -25 14 -25 6z"/>
<path d="M5999 9158 c-5 -19 -8 -50 -4 -46 7 7 15 48 9 48 -2 0 -4 -1 -5 -2z"/>
<path d="M5915 9141 c-3 -5 -2 -12 3 -15 5 -3 9 1 9 9 0 17 -3 19 -12 6z"/>
<path d="M6037 9134 c5 -13 3 -15 -7 -9 -9 5 -11 4 -6 -3 4 -7 11 -12 17 -12
12 0 12 27 -1 35 -6 4 -7 -1 -3 -11z"/>
<path d="M6166 9133 c-6 -14 -5 -15 5 -6 7 7 10 15 7 18 -3 3 -9 -2 -12 -12z"/>
<path d="M5856 9113 c-6 -14 -5 -15 5 -6 7 7 10 15 7 18 -3 3 -9 -2 -12 -12z"/>
<path d="M5937 9115 c-4 -8 -1 -17 5 -21 7 -5 8 -2 3 6 -6 10 -4 12 10 6 15
-5 16 -4 5 9 -15 19 -16 19 -23 0z"/>
<path d="M5816 9102 c-2 -4 -1 -14 4 -22 7 -11 9 -9 7 8 -1 24 -3 26 -11 14z"/>
<path d="M5792 9085 c4 -4 4 -13 -2 -19 -6 -8 -2 -12 13 -13 12 0 16 1 9 4 -6
3 -10 9 -7 13 3 5 0 12 -7 16 -7 4 -10 4 -6 -1z"/>
<path d="M5870 9081 c0 -6 4 -13 10 -16 6 -3 7 1 4 9 -7 18 -14 21 -14 7z"/>
<path d="M5905 9080 c-7 -12 2 -30 16 -30 5 0 9 5 9 11 0 5 -4 7 -10 4 -5 -3
-10 -2 -10 4 0 5 6 12 13 14 9 4 9 6 0 6 -6 1 -15 -3 -18 -9z"/>
<path d="M9483 7486 c3 -7 1 -18 -4 -23 -14 -14 14 -24 32 -12 12 8 11 11 -4
20 -9 6 -15 14 -12 20 4 5 1 9 -5 9 -7 0 -10 -6 -7 -14z"/>
<path d="M9498 7329 c-7 -4 -9 -12 -4 -16 5 -4 11 -2 13 5 3 6 9 10 13 7 5 -3
11 -2 14 3 6 11 -19 11 -36 1z"/>
<path d="M9388 7303 c7 -3 16 -2 19 1 4 3 -2 6 -13 5 -11 0 -14 -3 -6 -6z"/>
<path d="M9515 7299 c-4 -6 -5 -12 -2 -15 2 -3 7 2 10 11 7 17 1 20 -8 4z"/>
<path d="M9442 7280 c-9 -15 -9 -21 1 -26 6 -4 9 -4 5 1 -4 4 -3 14 4 22 6 7
9 15 7 18 -3 2 -10 -4 -17 -15z"/>
<path d="M9340 7285 c0 -2 6 -8 13 -14 10 -8 14 -7 14 2 0 8 -6 14 -14 14 -7
0 -13 -1 -13 -2z"/>
<path d="M1669 5083 c-13 -16 -12 -17 4 -4 9 7 17 15 17 17 0 8 -8 3 -21 -13z"/>
<path d="M1573 5031 c0 -11 5 -18 9 -15 4 3 5 11 1 19 -7 21 -12 19 -10 -4z"/>
<path d="M1550 4960 c0 -5 5 -10 11 -10 5 0 7 5 4 10 -3 6 -8 10 -11 10 -2 0
-4 -4 -4 -10z"/>
<path d="M1615 4930 c-4 -6 -11 -7 -17 -4 -7 4 -8 2 -4 -5 6 -9 11 -9 22 0 14
11 18 19 10 19 -3 0 -8 -5 -11 -10z"/>
<path d="M1535 4900 c3 -5 8 -10 11 -10 2 0 4 5 4 10 0 6 -5 10 -11 10 -5 0
-7 -4 -4 -10z"/>
<path d="M1590 4855 c5 -7 6 -16 2 -21 -4 -5 -3 -5 2 -1 15 12 15 34 0 34 -9
0 -11 -4 -4 -12z"/>
<path d="M1555 4849 c-4 -6 -5 -12 -2 -15 2 -3 7 2 10 11 7 17 1 20 -8 4z"/>
<path d="M1559 4773 c-13 -16 -12 -17 4 -4 16 13 21 21 13 21 -2 0 -10 -8 -17
-17z"/>
<path d="M1396 4753 c-6 -14 -5 -15 5 -6 7 7 10 15 7 18 -3 3 -9 -2 -12 -12z"/>
<path d="M1457 4755 c-4 -8 -3 -16 1 -19 4 -3 9 4 9 15 2 23 -3 25 -10 4z"/>
<path d="M1505 4740 c-3 -6 1 -7 9 -4 18 7 21 14 7 14 -6 0 -13 -4 -16 -10z"/>
<path d="M1549 4737 c6 -8 7 -18 3 -22 -4 -5 -1 -5 6 -1 10 6 10 11 1 22 -6 8
-14 14 -16 14 -3 0 0 -6 6 -13z"/>
<path d="M1410 4680 c0 -5 5 -10 11 -10 5 0 7 5 4 10 -3 6 -8 10 -11 10 -2 0
-4 -4 -4 -10z"/>
<path d="M1470 4681 c0 -6 4 -13 10 -16 6 -3 7 1 4 9 -7 18 -14 21 -14 7z"/>
<path d="M1435 4631 c-3 -5 -2 -12 3 -15 5 -3 9 1 9 9 0 17 -3 19 -12 6z"/>
<path d="M1390 4601 c0 -6 4 -13 10 -16 6 -3 7 1 4 9 -7 18 -14 21 -14 7z"/>
<path d="M1479 4593 c-13 -16 -12 -17 4 -4 9 7 17 15 17 17 0 8 -8 3 -21 -13z"/>
<path d="M1430 4596 c0 -2 8 -10 18 -17 15 -13 16 -12 3 4 -13 16 -21 21 -21
13z"/>
<path d="M1376 4498 c3 -5 10 -6 15 -3 13 9 11 12 -6 12 -8 0 -12 -4 -9 -9z"/>
<path d="M1350 4459 c0 -5 5 -7 10 -4 6 3 10 8 10 11 0 2 -4 4 -10 4 -5 0 -10
-5 -10 -11z"/>
<path d="M1294 4316 c1 -8 5 -18 8 -22 4 -3 5 1 4 10 -1 8 -5 18 -8 22 -4 3
-5 -1 -4 -10z"/>
<path d="M1294 4256 c1 -8 5 -18 8 -22 4 -3 5 1 4 10 -1 8 -5 18 -8 22 -4 3
-5 -1 -4 -10z"/>
<path d="M1190 4166 c0 -2 7 -7 16 -10 8 -3 12 -2 9 4 -6 10 -25 14 -25 6z"/>
<path d="M1066 3958 c3 -5 10 -6 15 -3 13 9 11 12 -6 12 -8 0 -12 -4 -9 -9z"/>
<path d="M3297 1173 c-10 -9 -9 -23 1 -23 5 0 9 7 9 15 0 17 -1 18 -10 8z"/>
<path d="M3255 1161 c-3 -5 -2 -12 3 -15 5 -3 9 1 9 9 0 17 -3 19 -12 6z"/>
<path d="M3170 1136 c0 -3 9 -10 19 -16 15 -7 22 -7 27 2 4 7 4 10 -1 6 -4 -4
-16 -3 -26 3 -11 5 -19 7 -19 5z"/>
<path d="M3315 1129 c-4 -6 -5 -12 -2 -15 2 -3 7 2 10 11 7 17 1 20 -8 4z"/>
<path d="M3145 1120 c-3 -5 -1 -10 4 -10 6 0 11 5 11 10 0 6 -2 10 -4 10 -3 0
-8 -4 -11 -10z"/>
<path d="M3234 1121 c4 -5 1 -12 -4 -14 -6 -3 -5 -4 2 -3 15 3 23 26 8 26 -6
0 -9 -4 -6 -9z"/>
<path d="M3105 1110 c-3 -6 1 -7 9 -4 18 7 21 14 7 14 -6 0 -13 -4 -16 -10z"/>
<path d="M3290 1096 c0 -2 8 -10 18 -17 15 -13 16 -12 3 4 -13 16 -21 21 -21
13z"/>
<path d="M3273 1067 c0 -8 6 -14 14 -14 9 0 10 4 2 14 -6 7 -12 13 -14 13 -1
0 -2 -6 -2 -13z"/>
<path d="M2985 1028 c-11 -13 -18 -27 -17 -32 1 -4 -3 -16 -10 -25 -7 -9 -8
-13 -4 -9 5 4 14 4 20 -1 18 -15 61 -17 59 -3 -2 6 2 12 7 12 6 0 10 -6 10
-12 0 -9 4 -8 10 2 5 8 10 10 10 4 0 -5 -5 -15 -12 -22 -9 -9 -9 -12 1 -12 7
0 9 -4 6 -10 -3 -5 -14 -10 -23 -10 -13 0 -14 2 -3 9 7 5 9 11 4 14 -5 3 -15
2 -21 -2 -10 -6 -9 -11 2 -21 9 -7 14 -16 11 -20 -11 -17 21 -15 38 2 9 10 13
18 8 18 -10 0 -9 19 2 37 11 17 -10 28 -71 38 -17 2 -22 0 -18 -11 3 -8 1 -12
-4 -9 -11 7 -8 41 5 52 4 5 5 3 1 -4 -8 -14 10 -28 18 -14 4 5 2 12 -3 16 -6
3 -8 12 -4 20 7 21 1 19 -22 -7z m42 -63 c0 -8 -4 -12 -9 -9 -5 3 -6 10 -3 15
9 13 12 11 12 -6z"/>
<path d="M3336 1042 c-3 -5 1 -9 9 -9 8 0 12 4 9 9 -3 4 -7 8 -9 8 -2 0 -6 -4
-9 -8z"/>
<path d="M3276 1027 c3 -10 9 -15 12 -12 3 3 0 11 -7 18 -10 9 -11 8 -5 -6z"/>
<path d="M3232 1021 c-11 -6 -10 -10 4 -15 9 -4 22 -2 28 4 8 8 6 9 -8 4 -13
-5 -17 -4 -12 4 8 14 6 15 -12 3z"/>
<path d="M3359 1018 c-5 -18 -6 -38 -1 -34 7 8 12 36 6 36 -2 0 -4 -1 -5 -2z"/>
<path d="M3230 981 c8 -5 18 -7 23 -4 5 3 6 -3 3 -14 -7 -21 18 -52 31 -39 3
3 1 6 -6 6 -7 0 -9 5 -5 12 4 7 3 8 -4 4 -8 -5 -11 0 -9 15 1 16 -4 22 -23 25
-18 3 -21 2 -10 -5z"/>
<path d="M3313 961 c-1 -14 1 -19 4 -11 3 8 10 20 14 26 5 6 4 11 -4 11 -7 0
-13 -12 -14 -26z"/>
<path d="M3291 964 c0 -11 3 -14 6 -6 3 7 2 16 -1 19 -3 4 -6 -2 -5 -13z"/>
<path d="M3216 955 c-3 -8 -1 -15 4 -15 6 0 10 7 10 15 0 8 -2 15 -4 15 -2 0
-6 -7 -10 -15z"/>
<path d="M3187 926 c-3 -7 -1 -19 5 -27 8 -11 9 -11 4 3 -3 11 1 18 12 20 16
3 16 4 0 10 -9 4 -18 1 -21 -6z"/>
<path d="M3230 915 c0 -8 2 -15 4 -15 2 0 6 7 10 15 3 8 1 15 -4 15 -6 0 -10
-7 -10 -15z"/>
</g>
</svg>
