<svg xmlns="http://www.w3.org/2000/svg" xmlns:xlink="http://www.w3.org/1999/xlink" viewBox="0 0 1280 800"><defs><style>.cls-1{fill:url(#CDB768);}.cls-2{fill:none;}.cls-3{fill:#cdb768;}.cls-4{isolation:isolate;}.cls-5{fill:url(#CDB768-7);}.cls-6{clip-path:url(#clip-path);}.cls-7{mix-blend-mode:multiply;}.cls-8{clip-path:url(#clip-path-3);}</style><pattern id="CDB768" data-name="CDB768" width="72" height="72" patternUnits="userSpaceOnUse" viewBox="0 0 72 72"><rect class="cls-2" width="72" height="72"/><path class="cls-3" d="M14.42,3.06a.27.27,0,0,1-.2-.08.33.33,0,0,1-.09-.21.33.33,0,0,1,.09-.21.32.32,0,0,1,.41,0,.28.28,0,0,1,.08.21.27.27,0,0,1-.08.2A.25.25,0,0,1,14.42,3.06Z"/><path class="cls-3" d="M19,7.41a.42.42,0,0,1-.21-.08.32.32,0,0,1,0-.42.33.33,0,0,1,.42,0,.32.32,0,0,1,0,.42A.28.28,0,0,1,19,7.41Z"/><path class="cls-3" d="M15,15.64a.26.26,0,0,1-.19-.08.32.32,0,0,1-.1-.21.33.33,0,0,1,.09-.21.3.3,0,0,1,.41,0,.28.28,0,0,1,.08.21.26.26,0,0,1-.08.2A.24.24,0,0,1,15,15.64Z"/><path class="cls-3" d="M19.84,26.63a.25.25,0,0,1-.2-.09.29.29,0,0,1-.09-.2.33.33,0,0,1,.09-.21.31.31,0,0,1,.41,0,.29.29,0,0,1,.08.21.28.28,0,0,1-.08.21A.3.3,0,0,1,19.84,26.63Z"/><path class="cls-3" d="M18.5,20.46a.29.29,0,0,1-.29-.29.28.28,0,0,1,.08-.2.3.3,0,0,1,.41,0,.25.25,0,0,1,.09.2.31.31,0,0,1-.09.21A.24.24,0,0,1,18.5,20.46Z"/><path class="cls-3" d="M24.41,5.47a.27.27,0,0,1-.2-.08.31.31,0,0,1-.09-.21.29.29,0,0,1,.09-.2.3.3,0,0,1,.41,0,.24.24,0,0,1,.08.2.29.29,0,0,1-.29.29Z"/><path class="cls-3" d="M26.38,1.12A.26.26,0,0,1,26.19,1a.27.27,0,0,1-.1-.21.25.25,0,0,1,.1-.2.28.28,0,0,1,.4,0,.24.24,0,0,1,.08.2.27.27,0,0,1-.08.2A.29.29,0,0,1,26.38,1.12Z"/><path class="cls-3" d="M26.88,16.6a.27.27,0,0,1-.2-.08.29.29,0,0,1,0-.42.31.31,0,0,1,.41,0,.28.28,0,0,1,.08.2.32.32,0,0,1-.08.21A.28.28,0,0,1,26.88,16.6Z"/><path class="cls-3" d="M40.19,22.88a.36.36,0,0,1-.2-.08.27.27,0,0,1-.09-.21.29.29,0,0,1,.09-.21.32.32,0,0,1,.41,0,.32.32,0,0,1,.08.21.39.39,0,0,1-.08.21A.32.32,0,0,1,40.19,22.88Z"/><path class="cls-3" d="M43.15,12.73a.27.27,0,0,1-.2-.08.29.29,0,0,1,0-.42.32.32,0,0,1,.41,0,.32.32,0,0,1,0,.42A.28.28,0,0,1,43.15,12.73Z"/><path class="cls-3" d="M49.55,11.89a.28.28,0,0,1-.19-.09.27.27,0,0,1-.09-.2.26.26,0,0,1,.09-.21.28.28,0,0,1,.4,0,.25.25,0,0,1,.08.21.26.26,0,0,1-.08.2A.29.29,0,0,1,49.55,11.89Z"/><path class="cls-3" d="M46.1,5a.28.28,0,0,1-.19-.08.34.34,0,0,1-.1-.21.33.33,0,0,1,.09-.2.28.28,0,0,1,.49.2.27.27,0,0,1-.08.2A.31.31,0,0,1,46.1,5Z"/><path class="cls-3" d="M41.17,1.61A.3.3,0,0,1,41,1.53a.32.32,0,0,1-.1-.21A.36.36,0,0,1,41,1.11a.32.32,0,0,1,.41,0,.31.31,0,0,1,.08.21.27.27,0,0,1-.08.2A.31.31,0,0,1,41.17,1.61Z"/><path class="cls-3" d="M65.82,4a.31.31,0,0,1-.29-.29.33.33,0,0,1,.09-.21.32.32,0,0,1,.41,0A.32.32,0,0,1,66,4,.36.36,0,0,1,65.82,4Z"/><path class="cls-3" d="M64.84,13.21a.3.3,0,0,1-.2-.08.27.27,0,0,1-.09-.21.28.28,0,0,1,.08-.2.31.31,0,0,1,.42,0,.26.26,0,0,1,.08.2.29.29,0,0,1-.08.21A.32.32,0,0,1,64.84,13.21Z"/><path class="cls-3" d="M57,14.67a.31.31,0,0,1-.29-.29.33.33,0,0,1,.08-.2.29.29,0,0,1,.41,0,.25.25,0,0,1,.09.21.22.22,0,0,1-.08.19A.26.26,0,0,1,57,14.67Z"/><path class="cls-3" d="M58.92,17.08a.33.33,0,0,1-.2-.08.29.29,0,0,1,0-.42.31.31,0,0,1,.41,0,.26.26,0,0,1,.08.2.25.25,0,0,1-.08.19A.28.28,0,0,1,58.92,17.08Z"/><path class="cls-3" d="M56,22.4a.28.28,0,0,1-.19-.5.28.28,0,0,1,.4,0,.32.32,0,0,1,0,.42A.36.36,0,0,1,56,22.4Z"/><path class="cls-3" d="M61.88,21.43a.33.33,0,0,1-.21-.09.33.33,0,0,1-.08-.2.36.36,0,0,1,.08-.2.32.32,0,0,1,.42,0,.29.29,0,0,1,.08.21.28.28,0,0,1-.08.21A.39.39,0,0,1,61.88,21.43Z"/><path class="cls-3" d="M70.26,25.78a.3.3,0,0,1-.2-.08.36.36,0,0,1-.09-.21.33.33,0,0,1,.08-.19.3.3,0,0,1,.42,0,.29.29,0,0,1,0,.4A.29.29,0,0,1,70.26,25.78Z"/><path class="cls-3" d="M67.3,23.36a.24.24,0,0,1-.19-.08.27.27,0,0,1,0-.42.3.3,0,0,1,.4,0,.29.29,0,0,1-.21.5Z"/><path class="cls-3" d="M71.25,18.53a.36.36,0,0,1-.2-.08.3.3,0,0,1-.09-.21A.32.32,0,0,1,71,18a.3.3,0,0,1,.42,0,.37.37,0,0,1,.08.21.27.27,0,0,1-.08.19A.3.3,0,0,1,71.25,18.53Z"/><path class="cls-3" d="M10.11,50.45a.28.28,0,0,1-.19-.09.26.26,0,0,1-.1-.2A.33.33,0,0,1,9.91,50a.3.3,0,0,1,.41,0,.3.3,0,0,1,.08.21.28.28,0,0,1-.08.2A.31.31,0,0,1,10.11,50.45Z"/><path class="cls-3" d="M17.51,30.63a.36.36,0,0,1-.2-.08.29.29,0,0,1-.09-.21.28.28,0,0,1,.08-.2.32.32,0,0,1,.42,0,.28.28,0,0,1,.08.21.32.32,0,0,1-.08.21A.29.29,0,0,1,17.51,30.63Z"/><path class="cls-3" d="M3.71,51.42a.32.32,0,0,1-.2-.08.29.29,0,0,1-.09-.21.3.3,0,0,1,.08-.2.27.27,0,0,1,.4,0,.28.28,0,0,1,.09.21.29.29,0,0,1-.08.21A.34.34,0,0,1,3.71,51.42Z"/><path class="cls-3" d="M11.1,61.1a.27.27,0,0,1-.2-.08.33.33,0,0,1-.09-.21.39.39,0,0,1,.08-.21.33.33,0,0,1,.42,0,.29.29,0,0,1-.21.5Z"/><path class="cls-3" d="M3.21,65.47A.28.28,0,0,1,3,65.38a.26.26,0,0,1-.1-.2A.33.33,0,0,1,3,65a.31.31,0,0,1,.42,0,.25.25,0,0,1,.08.21.26.26,0,0,1-.08.2A.32.32,0,0,1,3.21,65.47Z"/><path class="cls-3" d="M16,67.88a.27.27,0,0,1-.2-.08.33.33,0,0,1-.09-.21.39.39,0,0,1,.08-.21.33.33,0,0,1,.42,0,.28.28,0,0,1,.08.21.32.32,0,0,1-.08.21A.29.29,0,0,1,16,67.88Z"/><path class="cls-3" d="M16.52,62.07a.25.25,0,0,1-.2-.09.29.29,0,0,1-.09-.2.33.33,0,0,1,.09-.21.32.32,0,0,1,.41,0,.32.32,0,0,1,0,.42A.32.32,0,0,1,16.52,62.07Z"/><path class="cls-3" d="M18,58.2a.31.31,0,0,1-.29-.29.39.39,0,0,1,.08-.21.31.31,0,0,1,.42,0,.29.29,0,0,1,.08.21.27.27,0,0,1-.09.21A.33.33,0,0,1,18,58.2Z"/><path class="cls-3" d="M25.88,43.68a.25.25,0,0,1-.19-.09.29.29,0,0,1-.09-.21.26.26,0,0,1,.09-.19.28.28,0,0,1,.41,0,.31.31,0,0,1,.08.21.27.27,0,0,1-.09.2A.28.28,0,0,1,25.88,43.68Z"/><path class="cls-3" d="M20,51.9a.26.26,0,0,1-.19-.08.27.27,0,0,1,0-.42.3.3,0,0,1,.4,0,.29.29,0,0,1,.08.21.29.29,0,0,1-.29.29Z"/><path class="cls-3" d="M31.81,41.74a.27.27,0,0,1-.2-.08.29.29,0,0,1,0-.42.32.32,0,0,1,.41,0,.37.37,0,0,1,.08.21.34.34,0,0,1-.08.21A.39.39,0,0,1,31.81,41.74Z"/><path class="cls-3" d="M27.37,64.5a.36.36,0,0,1-.2-.08.29.29,0,0,1,0-.42.29.29,0,0,1,.41.42A.39.39,0,0,1,27.37,64.5Z"/><path class="cls-3" d="M25.4,50.93a.27.27,0,0,1-.2-.08.29.29,0,0,1,0-.42.31.31,0,0,1,.41,0,.3.3,0,0,1,.08.2.32.32,0,0,1-.08.21A.28.28,0,0,1,25.4,50.93Z"/><path class="cls-3" d="M34.27,48.51a.3.3,0,0,1-.2-.08.29.29,0,0,1,0-.42.32.32,0,0,1,.41,0,.29.29,0,0,1,.08.21.27.27,0,0,1-.08.2A.25.25,0,0,1,34.27,48.51Z"/><path class="cls-3" d="M42.16,47.54a.32.32,0,0,1-.2-.08.27.27,0,0,1-.09-.21.25.25,0,0,1,.09-.2.3.3,0,0,1,.41,0,.24.24,0,0,1,.08.2.26.26,0,0,1-.08.21A.28.28,0,0,1,42.16,47.54Z"/><path class="cls-3" d="M47.58,45.13a.24.24,0,0,1-.19-.08.28.28,0,0,1-.1-.21.26.26,0,0,1,.1-.2.28.28,0,0,1,.4,0,.26.26,0,0,1,.08.2.29.29,0,0,1-.08.21A.28.28,0,0,1,47.58,45.13Z"/><path class="cls-3" d="M46.6,50a.32.32,0,0,1-.2-.08.29.29,0,0,1,0-.42.32.32,0,0,1,.41,0,.32.32,0,0,1,0,.42A.28.28,0,0,1,46.6,50Z"/><path class="cls-3" d="M41.67,53.35a.3.3,0,0,1-.2-.08.27.27,0,0,1-.09-.21.25.25,0,0,1,.09-.2.3.3,0,0,1,.41,0,.28.28,0,0,1,.08.2.3.3,0,0,1-.08.21A.32.32,0,0,1,41.67,53.35Z"/><path class="cls-3" d="M39.2,60.62a.36.36,0,0,1-.2-.08.29.29,0,0,1,0-.42.32.32,0,0,1,.41,0,.29.29,0,0,1,.08.21.29.29,0,0,1-.29.29Z"/><path class="cls-3" d="M45.61,56.74a.3.3,0,0,1-.2-.08.36.36,0,0,1-.09-.21.3.3,0,0,1,.08-.19.28.28,0,0,1,.5.19.27.27,0,0,1-.08.2A.29.29,0,0,1,45.61,56.74Z"/><path class="cls-3" d="M52.51,67.4a.33.33,0,0,1-.19-.08.27.27,0,0,1,0-.42.28.28,0,0,1,.4,0,.32.32,0,0,1,0,.42A.32.32,0,0,1,52.51,67.4Z"/><path class="cls-3" d="M48.08,63.53a.39.39,0,0,1-.2-.08.29.29,0,0,1,0-.42.32.32,0,0,1,.41,0,.34.34,0,0,1,.08.21.32.32,0,0,1-.08.21A.28.28,0,0,1,48.08,63.53Z"/><path class="cls-3" d="M27.85,26.27a.25.25,0,0,1-.19-.09.29.29,0,0,1-.09-.21.35.35,0,0,1,.1-.21.31.31,0,0,1,.41,0,.33.33,0,0,1,.07.21.27.27,0,0,1-.09.2A.29.29,0,0,1,27.85,26.27Z"/><path class="cls-3" d="M35.27,27.24a.3.3,0,0,1-.2-.08A.26.26,0,0,1,35,27a.28.28,0,0,1,.08-.21.28.28,0,0,1,.39,0,.27.27,0,0,1,.11.2.31.31,0,0,1-.07.2A.28.28,0,0,1,35.27,27.24Z"/><path class="cls-3" d="M42.65,26.75a.26.26,0,0,1-.19-.08.27.27,0,0,1,0-.42.3.3,0,0,1,.4,0,.32.32,0,0,1,0,.42A.32.32,0,0,1,42.65,26.75Z"/><path class="cls-3" d="M38.22,32.08A.27.27,0,0,1,38,32a.29.29,0,0,1,0-.42.32.32,0,0,1,.41,0,.32.32,0,0,1,.08.21.39.39,0,0,1-.08.21A.28.28,0,0,1,38.22,32.08Z"/><path class="cls-3" d="M55.47,37.4a.3.3,0,0,1-.2-.08.31.31,0,0,1-.09-.21.29.29,0,0,1,.09-.2.29.29,0,0,1,.4,0,.24.24,0,0,1,.09.2.27.27,0,0,1-.29.29Z"/><path class="cls-3" d="M49.55,39.34a.25.25,0,0,1-.19-.09.27.27,0,0,1-.09-.2.28.28,0,0,1,.08-.2.29.29,0,0,1,.41,0,.31.31,0,0,1,.08.21.31.31,0,0,1-.29.29Z"/><path class="cls-3" d="M45.12,40.3a.36.36,0,0,1-.2-.08.29.29,0,0,1,0-.42.32.32,0,0,1,.41,0,.32.32,0,0,1,0,.42A.39.39,0,0,1,45.12,40.3Z"/><path class="cls-3" d="M57.08,50.57a.29.29,0,0,1-.21-.49.32.32,0,0,1,.42,0,.31.31,0,0,1,.08.21.27.27,0,0,1-.08.2A.33.33,0,0,1,57.08,50.57Z"/><path class="cls-3" d="M59.41,46.1a.39.39,0,0,1-.19-.08.29.29,0,0,1-.09-.21.26.26,0,0,1,.09-.21.3.3,0,0,1,.4,0,.32.32,0,0,1,.08.21.28.28,0,0,1-.08.21A.29.29,0,0,1,59.41,46.1Z"/><path class="cls-3" d="M62.87,49.48a.36.36,0,0,1-.2-.08.29.29,0,0,1,0-.42.33.33,0,0,1,.41,0,.32.32,0,0,1,0,.42A.28.28,0,0,1,62.87,49.48Z"/><path class="cls-3" d="M70.75,38.85a.25.25,0,0,1-.19-.08.28.28,0,0,1-.1-.21.26.26,0,0,1,.1-.2.28.28,0,0,1,.4,0,.28.28,0,0,1,.08.2.3.3,0,0,1-.08.21A.26.26,0,0,1,70.75,38.85Z"/><path class="cls-3" d="M12.58,34a.27.27,0,0,1-.2-.08.29.29,0,0,1-.09-.21.32.32,0,0,1,.08-.2.3.3,0,0,1,.42,0,.31.31,0,0,1,.08.21.29.29,0,0,1-.08.21A.28.28,0,0,1,12.58,34Z"/><path class="cls-3" d="M19.48,37.89a.27.27,0,0,1-.2-.08.33.33,0,0,1-.09-.21.39.39,0,0,1,.08-.2.3.3,0,0,1,.42,0,.31.31,0,0,1,.08.21.27.27,0,0,1-.29.29Z"/><path class="cls-3" d="M17,43.19a.32.32,0,0,1-.21-.08.34.34,0,0,1-.08-.21.32.32,0,0,1,.08-.21.33.33,0,0,1,.42,0,.32.32,0,0,1,0,.42A.28.28,0,0,1,17,43.19Z"/><path class="cls-3" d="M32.79,28.69a.24.24,0,0,1-.19-.08.27.27,0,0,1-.1-.21.26.26,0,0,1,.1-.2.28.28,0,0,1,.4,0,.24.24,0,0,1,.08.2.25.25,0,0,1-.08.21A.29.29,0,0,1,32.79,28.69Z"/><path class="cls-3" d="M4.69,29.18a.36.36,0,0,1-.2-.08.33.33,0,0,1-.09-.21.39.39,0,0,1,.08-.21.33.33,0,0,1,.42,0,.32.32,0,0,1,0,.42A.29.29,0,0,1,4.69,29.18Z"/><path class="cls-3" d="M58.43,33.05a.36.36,0,0,1-.2-.08.3.3,0,0,1-.09-.21.3.3,0,0,1,.08-.2.31.31,0,0,1,.41,0,.27.27,0,0,1,.09.21.22.22,0,0,1-.08.19A.26.26,0,0,1,58.43,33.05Z"/><path class="cls-3" d="M63.36,30.15a.31.31,0,0,1-.2-.09.25.25,0,0,1-.09-.2.28.28,0,0,1,.08-.2.3.3,0,0,1,.42,0,.31.31,0,0,1,.08.21.26.26,0,0,1-.08.2A.33.33,0,0,1,63.36,30.15Z"/><path class="cls-3" d="M68.78,31.6a.26.26,0,0,1-.19-.09.26.26,0,0,1-.1-.2.3.3,0,0,1,.5-.21.26.26,0,0,1,.08.21.24.24,0,0,1-.08.2A.33.33,0,0,1,68.78,31.6Z"/><path class="cls-3" d="M2.23,10.31A.34.34,0,0,1,2,10.23.3.3,0,0,1,1.94,10,.28.28,0,0,1,2,9.82a.31.31,0,0,1,.42,0,.3.3,0,0,1,.08.2.34.34,0,0,1-.08.21A.32.32,0,0,1,2.23,10.31Z"/><path class="cls-3" d="M5.18,3.06A.25.25,0,0,1,5,3a.3.3,0,0,1-.1-.21A.33.33,0,0,1,5,2.56a.31.31,0,0,1,.41,0,.24.24,0,0,1,.08.2A.29.29,0,0,1,5.39,3,.26.26,0,0,1,5.18,3.06Z"/><path class="cls-3" d="M8.14,14.18A.26.26,0,0,1,8,14.1a.3.3,0,0,1-.1-.21.42.42,0,0,1,.08-.21.33.33,0,0,1,.42,0,.32.32,0,0,1,0,.42A.29.29,0,0,1,8.14,14.18Z"/><path class="cls-3" d="M1.24,41.26a.31.31,0,0,1-.2-.09A.29.29,0,0,1,1,41,.31.31,0,0,1,1,40.76a.31.31,0,0,1,.41,0,.26.26,0,0,1,.08.2.28.28,0,0,1-.08.2A.33.33,0,0,1,1.24,41.26Z"/><path class="cls-3" d="M62.37,38.37a.28.28,0,0,1-.19-.5.3.3,0,0,1,.4,0,.32.32,0,0,1,0,.42A.39.39,0,0,1,62.37,38.37Z"/><path class="cls-3" d="M65.33,61.59A.31.31,0,0,1,65,61.3a.36.36,0,0,1,.08-.21.31.31,0,0,1,.42,0,.28.28,0,0,1,.08.21.25.25,0,0,1-.08.19A.3.3,0,0,1,65.33,61.59Z"/><path class="cls-3" d="M34.76,58.68a.26.26,0,0,1-.19-.08.28.28,0,0,1-.1-.21.3.3,0,0,1,.1-.21.3.3,0,0,1,.4,0,.29.29,0,0,1,.08.21.28.28,0,0,1-.08.21A.25.25,0,0,1,34.76,58.68Z"/><path class="cls-3" d="M22.93,69.33a.24.24,0,0,1-.19-.08.28.28,0,0,1-.1-.21.26.26,0,0,1,.1-.2.28.28,0,0,1,.4,0,.24.24,0,0,1,.08.2.27.27,0,0,1-.08.2A.25.25,0,0,1,22.93,69.33Z"/><path class="cls-3" d="M6.66,57.71a.24.24,0,0,1-.19-.08.29.29,0,1,1,.4-.42.31.31,0,0,1,.08.21.27.27,0,0,1-.29.29Z"/><path class="cls-3" d="M52,44.16a.32.32,0,0,1-.2-.08.29.29,0,0,1-.09-.2.28.28,0,0,1,.09-.21.3.3,0,0,1,.41,0,.25.25,0,0,1,.08.21.24.24,0,0,1-.08.2A.32.32,0,0,1,52,44.16Z"/><path class="cls-3" d="M64.35,40.78a.33.33,0,0,1-.2-.08.29.29,0,0,1,0-.42.32.32,0,0,1,.4,0,.32.32,0,0,1,0,.42A.33.33,0,0,1,64.35,40.78Z"/><path class="cls-3" d="M43.15,63.65a.27.27,0,0,1-.2-.08.29.29,0,0,1,0-.42.32.32,0,0,1,.41,0,.32.32,0,0,1,.08.21.39.39,0,0,1-.08.21A.28.28,0,0,1,43.15,63.65Z"/><path class="cls-3" d="M29.83,35.47a.33.33,0,0,1-.19-.08.27.27,0,0,1,0-.42.3.3,0,0,1,.4,0,.29.29,0,0,1,.08.21.24.24,0,0,1-.08.19A.27.27,0,0,1,29.83,35.47Z"/><path class="cls-3" d="M44.62,16.12a.33.33,0,0,1-.19-.08.27.27,0,0,1,0-.42.29.29,0,0,1,.4,0,.26.26,0,0,1,.08.2.29.29,0,0,1-.08.21A.33.33,0,0,1,44.62,16.12Z"/><path class="cls-3" d="M5.68,21a.31.31,0,0,1-.2-.09.25.25,0,0,1-.09-.2.32.32,0,0,1,.08-.2.3.3,0,0,1,.42,0,.32.32,0,0,1,.08.21.28.28,0,0,1-.08.2A.29.29,0,0,1,5.68,21Z"/><path class="cls-3" d="M39.69,4.51a.33.33,0,0,1-.19-.08.28.28,0,0,1-.1-.21A.27.27,0,0,1,39.5,4a.32.32,0,0,1,.4,0,.32.32,0,0,1,0,.42A.33.33,0,0,1,39.69,4.51Z"/><path class="cls-3" d="M53.5,2.09A.3.3,0,0,1,53.3,2a.29.29,0,0,1,0-.42.32.32,0,0,1,.41,0,.32.32,0,0,1,0,.42A.32.32,0,0,1,53.5,2.09Z"/><path class="cls-3" d="M63.85,54.81a.29.29,0,0,1-.29-.29.33.33,0,0,1,.09-.21.29.29,0,0,1,.49.21.25.25,0,0,1-.08.19A.3.3,0,0,1,63.85,54.81Z"/><path class="cls-3" d="M37.23,66.91a.3.3,0,0,1-.2-.08.26.26,0,0,1-.09-.21.27.27,0,0,1,.09-.21.33.33,0,0,1,.41,0,.32.32,0,0,1,0,.42A.28.28,0,0,1,37.23,66.91Z"/><path class="cls-3" d="M69.77,15.15a.33.33,0,0,1-.2-.08.29.29,0,0,1,0-.42.32.32,0,0,1,.41,0,.32.32,0,0,1,0,.42A.39.39,0,0,1,69.77,15.15Z"/><path class="cls-3" d="M14.06,20a.27.27,0,0,1-.2-.08.29.29,0,0,1-.09-.21.34.34,0,0,1,.08-.21.33.33,0,0,1,.42,0,.32.32,0,0,1,0,.42A.28.28,0,0,1,14.06,20Z"/><path class="cls-3" d="M13.07,12.25a.33.33,0,0,1-.21-.09.36.36,0,0,1-.08-.2.33.33,0,0,1,.08-.21.31.31,0,0,1,.42,0,.25.25,0,0,1,.08.21.22.22,0,0,1-.08.19A.26.26,0,0,1,13.07,12.25Z"/><path class="cls-3" d="M19.48,13.7a.42.42,0,0,1-.21-.08.39.39,0,0,1-.08-.21.33.33,0,0,1,.09-.21.32.32,0,0,1,.41,0,.32.32,0,0,1,0,.42A.39.39,0,0,1,19.48,13.7Z"/><path class="cls-3" d="M23.43,10.8a.27.27,0,0,1-.2-.08.29.29,0,0,1,0-.42.29.29,0,0,1,.4.42A.24.24,0,0,1,23.43,10.8Z"/><path class="cls-3" d="M11.23,28.57a.27.27,0,0,1-.2-.08.29.29,0,0,1,0-.42.32.32,0,0,1,.41,0,.32.32,0,0,1,0,.42A.29.29,0,0,1,11.23,28.57Z"/><path class="cls-3" d="M29.34,6.44a.3.3,0,0,1-.2-.08.31.31,0,0,1-.09-.21.33.33,0,0,1,.09-.21.32.32,0,0,1,.41,0,.31.31,0,0,1,.08.21.28.28,0,0,1-.08.21A.32.32,0,0,1,29.34,6.44Z"/><path class="cls-3" d="M33.78,2.58a.3.3,0,0,1-.21-.1.24.24,0,0,1-.08-.19.29.29,0,0,1,.09-.21A.29.29,0,0,1,34,2.5.39.39,0,0,1,33.78,2.58Z"/><path class="cls-3" d="M38.71,9.35a.31.31,0,0,1-.2-.09.24.24,0,0,1-.09-.2.25.25,0,0,1,.09-.21.3.3,0,0,1,.41,0,.28.28,0,0,1,.08.21.26.26,0,0,1-.08.2A.33.33,0,0,1,38.71,9.35Z"/><path class="cls-3" d="M33.29,11.28a.36.36,0,0,1-.2-.08.29.29,0,0,1,0-.42.32.32,0,0,1,.4,0,.29.29,0,0,1,0,.42A.33.33,0,0,1,33.29,11.28Z"/><path class="cls-3" d="M9.62,24.33a.27.27,0,0,1-.2-.08A.33.33,0,0,1,9.33,24a.39.39,0,0,1,.08-.21.32.32,0,0,1,.42,0,.29.29,0,0,1,.08.21.28.28,0,0,1-.08.21A.32.32,0,0,1,9.62,24.33Z"/><path class="cls-3" d="M7.16,37.89A.31.31,0,0,1,7,37.8a.25.25,0,0,1-.09-.2A.32.32,0,0,1,7,37.4a.3.3,0,0,1,.42,0,.32.32,0,0,1,.08.21.28.28,0,0,1-.08.2A.3.3,0,0,1,7.16,37.89Z"/><path class="cls-3" d="M4.2,36.44a.36.36,0,0,1-.2-.08.3.3,0,0,1-.09-.21A.29.29,0,0,1,4,35.94a.32.32,0,0,1,.41,0,.39.39,0,0,1,.08.21.28.28,0,0,1-.08.21A.39.39,0,0,1,4.2,36.44Z"/><path class="cls-3" d="M12.09,42.22a.3.3,0,0,1-.2-.08.27.27,0,0,1-.09-.21.3.3,0,0,1,.08-.2.31.31,0,0,1,.42,0,.28.28,0,0,1,.08.2.3.3,0,0,1-.08.21A.32.32,0,0,1,12.09,42.22Z"/><path class="cls-3" d="M6.17,44.65a.36.36,0,0,1-.2-.08.33.33,0,0,1-.09-.21A.42.42,0,0,1,6,44.15a.32.32,0,0,1,.41,0,.27.27,0,0,1,.09.21.28.28,0,0,1-.08.21A.29.29,0,0,1,6.17,44.65Z"/><path class="cls-3" d="M7.65,46.58a.29.29,0,0,1-.21-.09.28.28,0,0,1-.08-.2.32.32,0,0,1,.08-.21.33.33,0,0,1,.42,0,.32.32,0,0,1,0,.42A.32.32,0,0,1,7.65,46.58Z"/><path class="cls-3" d="M14.55,49a.27.27,0,0,1-.2-.08.33.33,0,0,1-.09-.21.36.36,0,0,1,.08-.2.3.3,0,0,1,.42,0,.31.31,0,0,1,.08.21.27.27,0,0,1-.29.29Z"/><path class="cls-3" d="M23.92,32.56a.34.34,0,0,1-.21-.08.28.28,0,0,1-.08-.2.29.29,0,0,1,.08-.21.31.31,0,0,1,.42,0,.26.26,0,0,1,.08.21.26.26,0,0,1-.08.2A.32.32,0,0,1,23.92,32.56Z"/><path class="cls-3" d="M15.54,55.78a.33.33,0,0,1-.2-.09.25.25,0,0,1-.09-.2.29.29,0,0,1,.08-.21.31.31,0,0,1,.42,0,.32.32,0,0,1,.08.21.3.3,0,0,1-.08.2A.33.33,0,0,1,15.54,55.78Z"/><path class="cls-3" d="M11.59,56.26a.39.39,0,0,1-.21-.08A.42.42,0,0,1,11.3,56a.39.39,0,0,1,.08-.21.33.33,0,0,1,.42,0,.28.28,0,0,1,.08.21.29.29,0,0,1-.08.21A.28.28,0,0,1,11.59,56.26Z"/><path class="cls-3" d="M2.72,59.17a.28.28,0,0,1-.2-.09.25.25,0,0,1-.09-.2.29.29,0,0,1,.08-.21.3.3,0,0,1,.41,0,.29.29,0,0,1,0,.41A.32.32,0,0,1,2.72,59.17Z"/><path class="cls-3" d="M9.13,68.37a.31.31,0,0,1-.2-.09.27.27,0,0,1-.09-.2.29.29,0,0,1,.08-.21.31.31,0,0,1,.42,0,.33.33,0,0,1,.08.21.21.21,0,0,1-.08.19A.26.26,0,0,1,9.13,68.37Z"/><path class="cls-3" d="M21.45,66.43a.24.24,0,0,1-.19-.08.28.28,0,0,1-.1-.21.26.26,0,0,1,.1-.2.28.28,0,0,1,.4,0,.26.26,0,0,1,.08.2.27.27,0,0,1-.08.2A.25.25,0,0,1,21.45,66.43Z"/><path class="cls-3" d="M22,62.56a.27.27,0,0,1-.2-.08.29.29,0,0,1-.09-.21.32.32,0,0,1,.08-.2.3.3,0,0,1,.42,0,.34.34,0,0,1,.08.21.32.32,0,0,1-.08.21A.28.28,0,0,1,22,62.56Z"/><path class="cls-3" d="M22.44,55.29a.27.27,0,0,1-.2-.08.29.29,0,0,1,0-.42.32.32,0,0,1,.41,0,.32.32,0,0,1,0,.42A.28.28,0,0,1,22.44,55.29Z"/><path class="cls-3" d="M24.9,21.91a.26.26,0,0,1-.19-.08.27.27,0,0,1,0-.42.3.3,0,0,1,.4,0,.32.32,0,0,1,0,.42A.28.28,0,0,1,24.9,21.91Z"/><path class="cls-3" d="M47.09,28.21a.3.3,0,0,1-.2-.08.29.29,0,0,1,0-.42.32.32,0,0,1,.41,0,.31.31,0,0,1,.08.21.27.27,0,0,1-.08.2A.29.29,0,0,1,47.09,28.21Z"/><path class="cls-3" d="M32.3,18a.3.3,0,0,1-.2-.08.26.26,0,0,1-.09-.21.3.3,0,0,1,.08-.2.31.31,0,0,1,.42,0,.29.29,0,0,1,.08.2.27.27,0,0,1-.08.2A.25.25,0,0,1,32.3,18Z"/><path class="cls-3" d="M36.74,19a.27.27,0,0,1-.2-.08.29.29,0,0,1-.09-.21.27.27,0,0,1,.09-.21.32.32,0,0,1,.41,0,.32.32,0,0,1,0,.42A.28.28,0,0,1,36.74,19Z"/><path class="cls-3" d="M56.46,8.38a.36.36,0,0,1-.2-.08.29.29,0,0,1-.09-.21.32.32,0,0,1,.08-.21.31.31,0,0,1,.42,0,.32.32,0,0,1,.08.21.24.24,0,0,1-.08.19A.26.26,0,0,1,56.46,8.38Z"/><path class="cls-3" d="M60.4,6a.31.31,0,0,1-.29-.29.33.33,0,0,1,.08-.2.3.3,0,0,1,.42,0,.31.31,0,0,1,.08.21.25.25,0,0,1-.08.19A.3.3,0,0,1,60.4,6Z"/><path class="cls-3" d="M68.29,8.86a.32.32,0,0,1-.2-.08A.29.29,0,0,1,68,8.57a.34.34,0,0,1,.08-.21.33.33,0,0,1,.42,0,.29.29,0,0,1,.08.21.27.27,0,0,1-.29.29Z"/><path class="cls-3" d="M61.39,11.76a.3.3,0,0,1-.2-.08.29.29,0,0,1,0-.42.32.32,0,0,1,.41,0,.32.32,0,0,1,0,.42A.32.32,0,0,1,61.39,11.76Z"/><path class="cls-3" d="M54.48,17.56a.27.27,0,0,1-.19-.08.29.29,0,0,1,0-.42.3.3,0,0,1,.4,0,.29.29,0,0,1,.08.21.26.26,0,0,1-.08.2A.23.23,0,0,1,54.48,17.56Z"/><path class="cls-3" d="M49.06,24.82a.29.29,0,0,1-.2-.5.29.29,0,0,1,.41.42A.39.39,0,0,1,49.06,24.82Z"/><path class="cls-3" d="M48.57,19.5a.31.31,0,0,1-.2-.09.27.27,0,0,1-.09-.2.29.29,0,0,1,.09-.21.3.3,0,0,1,.41,0,.28.28,0,0,1,.08.21.26.26,0,0,1-.08.2A.33.33,0,0,1,48.57,19.5Z"/><path class="cls-3" d="M59.91,25.3a.32.32,0,0,1-.2-.08.29.29,0,0,1,0-.42.32.32,0,0,1,.41,0,.29.29,0,0,1,.08.21.27.27,0,0,1-.29.29Z"/><path class="cls-3" d="M56.33,27.85a.3.3,0,0,1-.2-.08.29.29,0,0,1,0-.42.32.32,0,0,1,.41,0,.32.32,0,0,1,.08.21.39.39,0,0,1-.08.21A.32.32,0,0,1,56.33,27.85Z"/><path class="cls-3" d="M51,33.53a.24.24,0,0,1-.19-.08.27.27,0,0,1,0-.42.3.3,0,0,1,.4,0,.28.28,0,0,1,.08.21.29.29,0,0,1-.29.29Z"/><path class="cls-3" d="M35.75,36.92a.3.3,0,0,1-.2-.08.31.31,0,0,1-.09-.21.29.29,0,0,1,.09-.2.3.3,0,0,1,.41,0,.29.29,0,0,1-.21.49Z"/><path class="cls-3" d="M30.33,53.84a.27.27,0,0,1-.2-.08.29.29,0,0,1,0-.42.32.32,0,0,1,.41,0,.32.32,0,0,1,.08.21.39.39,0,0,1-.08.21A.28.28,0,0,1,30.33,53.84Z"/><path class="cls-3" d="M36.24,54.32a.27.27,0,0,1-.19-.08.27.27,0,0,1,0-.42.3.3,0,0,1,.4,0,.29.29,0,0,1,.08.21.26.26,0,0,1-.08.2A.24.24,0,0,1,36.24,54.32Z"/><path class="cls-3" d="M28.85,59.65a.39.39,0,0,1-.2-.08.29.29,0,0,1-.09-.21.27.27,0,0,1,.09-.21.32.32,0,0,1,.41,0,.28.28,0,0,1,.08.21.29.29,0,0,1-.08.21A.39.39,0,0,1,28.85,59.65Z"/><path class="cls-3" d="M37.72,42.71a.24.24,0,0,1-.19-.08.27.27,0,0,1,0-.42.3.3,0,0,1,.4,0,.31.31,0,0,1,.08.21.29.29,0,0,1-.08.21A.39.39,0,0,1,37.72,42.71Z"/><path class="cls-3" d="M21,45.62a.36.36,0,0,1-.2-.08.29.29,0,0,1,0-.42.32.32,0,0,1,.41,0,.29.29,0,0,1,.08.21.22.22,0,0,1-.08.19A.3.3,0,0,1,21,45.62Z"/><path class="cls-3" d="M50.54,52.87a.27.27,0,0,1-.2-.08.29.29,0,0,1,0-.42.32.32,0,0,1,.41,0,.29.29,0,0,1-.21.5Z"/><path class="cls-3" d="M51.53,60.13a.32.32,0,0,1-.2-.08.27.27,0,0,1-.09-.21.25.25,0,0,1,.09-.2.3.3,0,0,1,.41,0,.28.28,0,0,1,.08.2.26.26,0,0,1-.08.2A.25.25,0,0,1,51.53,60.13Z"/><path class="cls-3" d="M31.31,23.84a.24.24,0,0,1-.19-.08.32.32,0,0,1-.1-.21.26.26,0,0,1,.09-.19.3.3,0,0,1,.41,0,.31.31,0,0,1,.08.21.29.29,0,0,1-.29.29Z"/><path class="cls-3" d="M44,32.92a.3.3,0,0,1-.2-.08.31.31,0,0,1-.09-.2.33.33,0,0,1,.09-.21.3.3,0,0,1,.41,0,.28.28,0,0,1,.08.21.26.26,0,0,1-.08.2A.32.32,0,0,1,44,32.92Z"/><path class="cls-3" d="M1.73,70.3a.24.24,0,0,1-.19-.08.27.27,0,0,1,0-.42.3.3,0,0,1,.4,0,.29.29,0,0,1-.21.5Z"/><path class="cls-3" d="M55,39.82a.31.31,0,0,1-.2-.09.25.25,0,0,1-.09-.2.26.26,0,0,1,.09-.21.28.28,0,0,1,.39,0,.26.26,0,0,1,.1.21.3.3,0,0,1-.08.2A.3.3,0,0,1,55,39.82Z"/><path class="cls-3" d="M69.28,47.06a.28.28,0,0,1-.2-.08.29.29,0,0,1,0-.42.32.32,0,0,1,.4,0,.28.28,0,0,1,.08.21.32.32,0,0,1-.08.21A.24.24,0,0,1,69.28,47.06Z"/><path class="cls-3" d="M66.81,52.39a.28.28,0,0,1-.2-.09.29.29,0,0,1-.09-.2.29.29,0,0,1,.09-.21.3.3,0,0,1,.41,0,.28.28,0,0,1,.08.21.22.22,0,0,1-.08.19A.26.26,0,0,1,66.81,52.39Z"/><path class="cls-3" d="M57.44,57.22a.24.24,0,0,1-.19-.08.3.3,0,0,1-.1-.21.36.36,0,0,1,.08-.19.3.3,0,0,1,.42,0,.29.29,0,0,1,.08.2.27.27,0,0,1-.08.2A.26.26,0,0,1,57.44,57.22Z"/><path class="cls-3" d="M60.89,66a.28.28,0,0,1-.19-.5.3.3,0,0,1,.4,0,.29.29,0,0,1,.08.21.28.28,0,0,1-.08.21A.36.36,0,0,1,60.89,66Z"/><path class="cls-3" d="M66.32,69.82a.36.36,0,0,1-.2-.08.3.3,0,0,1-.09-.21.29.29,0,0,1,.09-.21.32.32,0,0,1,.41,0,.32.32,0,0,1,.08.21.3.3,0,0,1-.08.2A.25.25,0,0,1,66.32,69.82Z"/><path class="cls-3" d="M57.94,63a.3.3,0,0,1-.2-.08.27.27,0,0,1-.09-.21.25.25,0,0,1,.09-.2.27.27,0,0,1,.39,0,.25.25,0,0,1,.1.2.34.34,0,0,1-.08.21A.31.31,0,0,1,57.94,63Z"/><path class="cls-3" d="M43.64,68.85a.36.36,0,0,1-.2-.08.29.29,0,0,1,0-.42.32.32,0,0,1,.41,0,.29.29,0,0,1,.08.21.29.29,0,0,1-.29.29Z"/><path class="cls-3" d="M31.68,66.92a.29.29,0,0,1-.2-.09.25.25,0,0,1-.09-.2.26.26,0,0,1,.09-.21.3.3,0,0,1,.41,0,.29.29,0,0,1,.08.21.26.26,0,0,1-.08.19A.3.3,0,0,1,31.68,66.92Z"/><path class="cls-3" d="M.75,31.11A.3.3,0,0,1,.55,31a.3.3,0,0,1-.09-.21.29.29,0,0,1,.09-.21.32.32,0,0,1,.41,0,.39.39,0,0,1,.08.21A.32.32,0,0,1,1,31,.28.28,0,0,1,.75,31.11Z"/><path class="cls-3" d="M10.61,6.92a.27.27,0,0,1-.29-.29.28.28,0,0,1,.08-.2.31.31,0,0,1,.42,0,.29.29,0,0,1,0,.4A.25.25,0,0,1,10.61,6.92Z"/><path class="cls-3" d="M67.8,34.5a.36.36,0,0,1-.2-.08.29.29,0,0,1,0-.42A.33.33,0,0,1,68,34a.32.32,0,0,1,0,.42A.28.28,0,0,1,67.8,34.5Z"/></pattern><pattern id="CDB768-7" data-name="CDB768" width="72" height="72" patternUnits="userSpaceOnUse" viewBox="0 0 72 72"><rect class="cls-2" width="72" height="72"/><path class="cls-3" d="M14.42,3.06a.27.27,0,0,1-.2-.08.33.33,0,0,1-.09-.21.33.33,0,0,1,.09-.21.32.32,0,0,1,.41,0,.28.28,0,0,1,.08.21.27.27,0,0,1-.08.2A.25.25,0,0,1,14.42,3.06Z"/><path class="cls-3" d="M19,7.41a.42.42,0,0,1-.21-.08.32.32,0,0,1,0-.42.33.33,0,0,1,.42,0,.32.32,0,0,1,0,.42A.28.28,0,0,1,19,7.41Z"/><path class="cls-3" d="M15,15.64a.26.26,0,0,1-.19-.08.32.32,0,0,1-.1-.21.33.33,0,0,1,.09-.21.3.3,0,0,1,.41,0,.28.28,0,0,1,.08.21.26.26,0,0,1-.08.2A.24.24,0,0,1,15,15.64Z"/><path class="cls-3" d="M19.84,26.63a.25.25,0,0,1-.2-.09.29.29,0,0,1-.09-.2.33.33,0,0,1,.09-.21.31.31,0,0,1,.41,0,.29.29,0,0,1,.08.21.28.28,0,0,1-.08.21A.3.3,0,0,1,19.84,26.63Z"/><path class="cls-3" d="M18.5,20.46a.29.29,0,0,1-.29-.29.28.28,0,0,1,.08-.2.3.3,0,0,1,.41,0,.25.25,0,0,1,.09.2.31.31,0,0,1-.09.21A.24.24,0,0,1,18.5,20.46Z"/><path class="cls-3" d="M24.41,5.47a.27.27,0,0,1-.2-.08.31.31,0,0,1-.09-.21.29.29,0,0,1,.09-.2.3.3,0,0,1,.41,0,.24.24,0,0,1,.08.2.29.29,0,0,1-.29.29Z"/><path class="cls-3" d="M26.38,1.12A.26.26,0,0,1,26.19,1a.27.27,0,0,1-.1-.21.25.25,0,0,1,.1-.2.28.28,0,0,1,.4,0,.24.24,0,0,1,.08.2.27.27,0,0,1-.08.2A.29.29,0,0,1,26.38,1.12Z"/><path class="cls-3" d="M26.88,16.6a.27.27,0,0,1-.2-.08.29.29,0,0,1,0-.42.31.31,0,0,1,.41,0,.28.28,0,0,1,.08.2.32.32,0,0,1-.08.21A.28.28,0,0,1,26.88,16.6Z"/><path class="cls-3" d="M40.19,22.88a.36.36,0,0,1-.2-.08.27.27,0,0,1-.09-.21.29.29,0,0,1,.09-.21.32.32,0,0,1,.41,0,.32.32,0,0,1,.08.21.39.39,0,0,1-.08.21A.32.32,0,0,1,40.19,22.88Z"/><path class="cls-3" d="M43.15,12.73a.27.27,0,0,1-.2-.08.29.29,0,0,1,0-.42.32.32,0,0,1,.41,0,.32.32,0,0,1,0,.42A.28.28,0,0,1,43.15,12.73Z"/><path class="cls-3" d="M49.55,11.89a.28.28,0,0,1-.19-.09.27.27,0,0,1-.09-.2.26.26,0,0,1,.09-.21.28.28,0,0,1,.4,0,.25.25,0,0,1,.08.21.26.26,0,0,1-.08.2A.29.29,0,0,1,49.55,11.89Z"/><path class="cls-3" d="M46.1,5a.28.28,0,0,1-.19-.08.34.34,0,0,1-.1-.21.33.33,0,0,1,.09-.2.28.28,0,0,1,.49.2.27.27,0,0,1-.08.2A.31.31,0,0,1,46.1,5Z"/><path class="cls-3" d="M41.17,1.61A.3.3,0,0,1,41,1.53a.32.32,0,0,1-.1-.21A.36.36,0,0,1,41,1.11a.32.32,0,0,1,.41,0,.31.31,0,0,1,.08.21.27.27,0,0,1-.08.2A.31.31,0,0,1,41.17,1.61Z"/><path class="cls-3" d="M65.82,4a.31.31,0,0,1-.29-.29.33.33,0,0,1,.09-.21.32.32,0,0,1,.41,0A.32.32,0,0,1,66,4,.36.36,0,0,1,65.82,4Z"/><path class="cls-3" d="M64.84,13.21a.3.3,0,0,1-.2-.08.27.27,0,0,1-.09-.21.28.28,0,0,1,.08-.2.31.31,0,0,1,.42,0,.26.26,0,0,1,.08.2.29.29,0,0,1-.08.21A.32.32,0,0,1,64.84,13.21Z"/><path class="cls-3" d="M57,14.67a.31.31,0,0,1-.29-.29.33.33,0,0,1,.08-.2.29.29,0,0,1,.41,0,.25.25,0,0,1,.09.21.22.22,0,0,1-.08.19A.26.26,0,0,1,57,14.67Z"/><path class="cls-3" d="M58.92,17.08a.33.33,0,0,1-.2-.08.29.29,0,0,1,0-.42.31.31,0,0,1,.41,0,.26.26,0,0,1,.08.2.25.25,0,0,1-.08.19A.28.28,0,0,1,58.92,17.08Z"/><path class="cls-3" d="M56,22.4a.28.28,0,0,1-.19-.5.28.28,0,0,1,.4,0,.32.32,0,0,1,0,.42A.36.36,0,0,1,56,22.4Z"/><path class="cls-3" d="M61.88,21.43a.33.33,0,0,1-.21-.09.33.33,0,0,1-.08-.2.36.36,0,0,1,.08-.2.32.32,0,0,1,.42,0,.29.29,0,0,1,.08.21.28.28,0,0,1-.08.21A.39.39,0,0,1,61.88,21.43Z"/><path class="cls-3" d="M70.26,25.78a.3.3,0,0,1-.2-.08.36.36,0,0,1-.09-.21.33.33,0,0,1,.08-.19.3.3,0,0,1,.42,0,.29.29,0,0,1,0,.4A.29.29,0,0,1,70.26,25.78Z"/><path class="cls-3" d="M67.3,23.36a.24.24,0,0,1-.19-.08.27.27,0,0,1,0-.42.3.3,0,0,1,.4,0,.29.29,0,0,1-.21.5Z"/><path class="cls-3" d="M71.25,18.53a.36.36,0,0,1-.2-.08.3.3,0,0,1-.09-.21A.32.32,0,0,1,71,18a.3.3,0,0,1,.42,0,.37.37,0,0,1,.08.21.27.27,0,0,1-.08.19A.3.3,0,0,1,71.25,18.53Z"/><path class="cls-3" d="M10.11,50.45a.28.28,0,0,1-.19-.09.26.26,0,0,1-.1-.2A.33.33,0,0,1,9.91,50a.3.3,0,0,1,.41,0,.3.3,0,0,1,.08.21.28.28,0,0,1-.08.2A.31.31,0,0,1,10.11,50.45Z"/><path class="cls-3" d="M17.51,30.63a.36.36,0,0,1-.2-.08.29.29,0,0,1-.09-.21.28.28,0,0,1,.08-.2.32.32,0,0,1,.42,0,.28.28,0,0,1,.08.21.32.32,0,0,1-.08.21A.29.29,0,0,1,17.51,30.63Z"/><path class="cls-3" d="M3.71,51.42a.32.32,0,0,1-.2-.08.29.29,0,0,1-.09-.21.3.3,0,0,1,.08-.2.27.27,0,0,1,.4,0,.28.28,0,0,1,.09.21.29.29,0,0,1-.08.21A.34.34,0,0,1,3.71,51.42Z"/><path class="cls-3" d="M11.1,61.1a.27.27,0,0,1-.2-.08.33.33,0,0,1-.09-.21.39.39,0,0,1,.08-.21.33.33,0,0,1,.42,0,.29.29,0,0,1-.21.5Z"/><path class="cls-3" d="M3.21,65.47A.28.28,0,0,1,3,65.38a.26.26,0,0,1-.1-.2A.33.33,0,0,1,3,65a.31.31,0,0,1,.42,0,.25.25,0,0,1,.08.21.26.26,0,0,1-.08.2A.32.32,0,0,1,3.21,65.47Z"/><path class="cls-3" d="M16,67.88a.27.27,0,0,1-.2-.08.33.33,0,0,1-.09-.21.39.39,0,0,1,.08-.21.33.33,0,0,1,.42,0,.28.28,0,0,1,.08.21.32.32,0,0,1-.08.21A.29.29,0,0,1,16,67.88Z"/><path class="cls-3" d="M16.52,62.07a.25.25,0,0,1-.2-.09.29.29,0,0,1-.09-.2.33.33,0,0,1,.09-.21.32.32,0,0,1,.41,0,.32.32,0,0,1,0,.42A.32.32,0,0,1,16.52,62.07Z"/><path class="cls-3" d="M18,58.2a.31.31,0,0,1-.29-.29.39.39,0,0,1,.08-.21.31.31,0,0,1,.42,0,.29.29,0,0,1,.08.21.27.27,0,0,1-.09.21A.33.33,0,0,1,18,58.2Z"/><path class="cls-3" d="M25.88,43.68a.25.25,0,0,1-.19-.09.29.29,0,0,1-.09-.21.26.26,0,0,1,.09-.19.28.28,0,0,1,.41,0,.31.31,0,0,1,.08.21.27.27,0,0,1-.09.2A.28.28,0,0,1,25.88,43.68Z"/><path class="cls-3" d="M20,51.9a.26.26,0,0,1-.19-.08.27.27,0,0,1,0-.42.3.3,0,0,1,.4,0,.29.29,0,0,1,.08.21.29.29,0,0,1-.29.29Z"/><path class="cls-3" d="M31.81,41.74a.27.27,0,0,1-.2-.08.29.29,0,0,1,0-.42.32.32,0,0,1,.41,0,.37.37,0,0,1,.08.21.34.34,0,0,1-.08.21A.39.39,0,0,1,31.81,41.74Z"/><path class="cls-3" d="M27.37,64.5a.36.36,0,0,1-.2-.08.29.29,0,0,1,0-.42.29.29,0,0,1,.41.42A.39.39,0,0,1,27.37,64.5Z"/><path class="cls-3" d="M25.4,50.93a.27.27,0,0,1-.2-.08.29.29,0,0,1,0-.42.31.31,0,0,1,.41,0,.3.3,0,0,1,.08.2.32.32,0,0,1-.08.21A.28.28,0,0,1,25.4,50.93Z"/><path class="cls-3" d="M34.27,48.51a.3.3,0,0,1-.2-.08.29.29,0,0,1,0-.42.32.32,0,0,1,.41,0,.29.29,0,0,1,.08.21.27.27,0,0,1-.08.2A.25.25,0,0,1,34.27,48.51Z"/><path class="cls-3" d="M42.16,47.54a.32.32,0,0,1-.2-.08.27.27,0,0,1-.09-.21.25.25,0,0,1,.09-.2.3.3,0,0,1,.41,0,.24.24,0,0,1,.08.2.26.26,0,0,1-.08.21A.28.28,0,0,1,42.16,47.54Z"/><path class="cls-3" d="M47.58,45.13a.24.24,0,0,1-.19-.08.28.28,0,0,1-.1-.21.26.26,0,0,1,.1-.2.28.28,0,0,1,.4,0,.26.26,0,0,1,.08.2.29.29,0,0,1-.08.21A.28.28,0,0,1,47.58,45.13Z"/><path class="cls-3" d="M46.6,50a.32.32,0,0,1-.2-.08.29.29,0,0,1,0-.42.32.32,0,0,1,.41,0,.32.32,0,0,1,0,.42A.28.28,0,0,1,46.6,50Z"/><path class="cls-3" d="M41.67,53.35a.3.3,0,0,1-.2-.08.27.27,0,0,1-.09-.21.25.25,0,0,1,.09-.2.3.3,0,0,1,.41,0,.28.28,0,0,1,.08.2.3.3,0,0,1-.08.21A.32.32,0,0,1,41.67,53.35Z"/><path class="cls-3" d="M39.2,60.62a.36.36,0,0,1-.2-.08.29.29,0,0,1,0-.42.32.32,0,0,1,.41,0,.29.29,0,0,1,.08.21.29.29,0,0,1-.29.29Z"/><path class="cls-3" d="M45.61,56.74a.3.3,0,0,1-.2-.08.36.36,0,0,1-.09-.21.3.3,0,0,1,.08-.19.28.28,0,0,1,.5.19.27.27,0,0,1-.08.2A.29.29,0,0,1,45.61,56.74Z"/><path class="cls-3" d="M52.51,67.4a.33.33,0,0,1-.19-.08.27.27,0,0,1,0-.42.28.28,0,0,1,.4,0,.32.32,0,0,1,0,.42A.32.32,0,0,1,52.51,67.4Z"/><path class="cls-3" d="M48.08,63.53a.39.39,0,0,1-.2-.08.29.29,0,0,1,0-.42.32.32,0,0,1,.41,0,.34.34,0,0,1,.08.21.32.32,0,0,1-.08.21A.28.28,0,0,1,48.08,63.53Z"/><path class="cls-3" d="M27.85,26.27a.25.25,0,0,1-.19-.09.29.29,0,0,1-.09-.21.35.35,0,0,1,.1-.21.31.31,0,0,1,.41,0,.33.33,0,0,1,.07.21.27.27,0,0,1-.09.2A.29.29,0,0,1,27.85,26.27Z"/><path class="cls-3" d="M35.27,27.24a.3.3,0,0,1-.2-.08A.26.26,0,0,1,35,27a.28.28,0,0,1,.08-.21.28.28,0,0,1,.39,0,.27.27,0,0,1,.11.2.31.31,0,0,1-.07.2A.28.28,0,0,1,35.27,27.24Z"/><path class="cls-3" d="M42.65,26.75a.26.26,0,0,1-.19-.08.27.27,0,0,1,0-.42.3.3,0,0,1,.4,0,.32.32,0,0,1,0,.42A.32.32,0,0,1,42.65,26.75Z"/><path class="cls-3" d="M38.22,32.08A.27.27,0,0,1,38,32a.29.29,0,0,1,0-.42.32.32,0,0,1,.41,0,.32.32,0,0,1,.08.21.39.39,0,0,1-.08.21A.28.28,0,0,1,38.22,32.08Z"/><path class="cls-3" d="M55.47,37.4a.3.3,0,0,1-.2-.08.31.31,0,0,1-.09-.21.29.29,0,0,1,.09-.2.29.29,0,0,1,.4,0,.24.24,0,0,1,.09.2.27.27,0,0,1-.29.29Z"/><path class="cls-3" d="M49.55,39.34a.25.25,0,0,1-.19-.09.27.27,0,0,1-.09-.2.28.28,0,0,1,.08-.2.29.29,0,0,1,.41,0,.31.31,0,0,1,.08.21.31.31,0,0,1-.29.29Z"/><path class="cls-3" d="M45.12,40.3a.36.36,0,0,1-.2-.08.29.29,0,0,1,0-.42.32.32,0,0,1,.41,0,.32.32,0,0,1,0,.42A.39.39,0,0,1,45.12,40.3Z"/><path class="cls-3" d="M57.08,50.57a.29.29,0,0,1-.21-.49.32.32,0,0,1,.42,0,.31.31,0,0,1,.08.21.27.27,0,0,1-.08.2A.33.33,0,0,1,57.08,50.57Z"/><path class="cls-3" d="M59.41,46.1a.39.39,0,0,1-.19-.08.29.29,0,0,1-.09-.21.26.26,0,0,1,.09-.21.3.3,0,0,1,.4,0,.32.32,0,0,1,.08.21.28.28,0,0,1-.08.21A.29.29,0,0,1,59.41,46.1Z"/><path class="cls-3" d="M62.87,49.48a.36.36,0,0,1-.2-.08.29.29,0,0,1,0-.42.33.33,0,0,1,.41,0,.32.32,0,0,1,0,.42A.28.28,0,0,1,62.87,49.48Z"/><path class="cls-3" d="M70.75,38.85a.25.25,0,0,1-.19-.08.28.28,0,0,1-.1-.21.26.26,0,0,1,.1-.2.28.28,0,0,1,.4,0,.28.28,0,0,1,.08.2.3.3,0,0,1-.08.21A.26.26,0,0,1,70.75,38.85Z"/><path class="cls-3" d="M12.58,34a.27.27,0,0,1-.2-.08.29.29,0,0,1-.09-.21.32.32,0,0,1,.08-.2.3.3,0,0,1,.42,0,.31.31,0,0,1,.08.21.29.29,0,0,1-.08.21A.28.28,0,0,1,12.58,34Z"/><path class="cls-3" d="M19.48,37.89a.27.27,0,0,1-.2-.08.33.33,0,0,1-.09-.21.39.39,0,0,1,.08-.2.3.3,0,0,1,.42,0,.31.31,0,0,1,.08.21.27.27,0,0,1-.29.29Z"/><path class="cls-3" d="M17,43.19a.32.32,0,0,1-.21-.08.34.34,0,0,1-.08-.21.32.32,0,0,1,.08-.21.33.33,0,0,1,.42,0,.32.32,0,0,1,0,.42A.28.28,0,0,1,17,43.19Z"/><path class="cls-3" d="M32.79,28.69a.24.24,0,0,1-.19-.08.27.27,0,0,1-.1-.21.26.26,0,0,1,.1-.2.28.28,0,0,1,.4,0,.24.24,0,0,1,.08.2.25.25,0,0,1-.08.21A.29.29,0,0,1,32.79,28.69Z"/><path class="cls-3" d="M4.69,29.18a.36.36,0,0,1-.2-.08.33.33,0,0,1-.09-.21.39.39,0,0,1,.08-.21.33.33,0,0,1,.42,0,.32.32,0,0,1,0,.42A.29.29,0,0,1,4.69,29.18Z"/><path class="cls-3" d="M58.43,33.05a.36.36,0,0,1-.2-.08.3.3,0,0,1-.09-.21.3.3,0,0,1,.08-.2.31.31,0,0,1,.41,0,.27.27,0,0,1,.09.21.22.22,0,0,1-.08.19A.26.26,0,0,1,58.43,33.05Z"/><path class="cls-3" d="M63.36,30.15a.31.31,0,0,1-.2-.09.25.25,0,0,1-.09-.2.28.28,0,0,1,.08-.2.3.3,0,0,1,.42,0,.31.31,0,0,1,.08.21.26.26,0,0,1-.08.2A.33.33,0,0,1,63.36,30.15Z"/><path class="cls-3" d="M68.78,31.6a.26.26,0,0,1-.19-.09.26.26,0,0,1-.1-.2.3.3,0,0,1,.5-.21.26.26,0,0,1,.08.21.24.24,0,0,1-.08.2A.33.33,0,0,1,68.78,31.6Z"/><path class="cls-3" d="M2.23,10.31A.34.34,0,0,1,2,10.23.3.3,0,0,1,1.94,10,.28.28,0,0,1,2,9.82a.31.31,0,0,1,.42,0,.3.3,0,0,1,.08.2.34.34,0,0,1-.08.21A.32.32,0,0,1,2.23,10.31Z"/><path class="cls-3" d="M5.18,3.06A.25.25,0,0,1,5,3a.3.3,0,0,1-.1-.21A.33.33,0,0,1,5,2.56a.31.31,0,0,1,.41,0,.24.24,0,0,1,.08.2A.29.29,0,0,1,5.39,3,.26.26,0,0,1,5.18,3.06Z"/><path class="cls-3" d="M8.14,14.18A.26.26,0,0,1,8,14.1a.3.3,0,0,1-.1-.21.42.42,0,0,1,.08-.21.33.33,0,0,1,.42,0,.32.32,0,0,1,0,.42A.29.29,0,0,1,8.14,14.18Z"/><path class="cls-3" d="M1.24,41.26a.31.31,0,0,1-.2-.09A.29.29,0,0,1,1,41,.31.31,0,0,1,1,40.76a.31.31,0,0,1,.41,0,.26.26,0,0,1,.08.2.28.28,0,0,1-.08.2A.33.33,0,0,1,1.24,41.26Z"/><path class="cls-3" d="M62.37,38.37a.28.28,0,0,1-.19-.5.3.3,0,0,1,.4,0,.32.32,0,0,1,0,.42A.39.39,0,0,1,62.37,38.37Z"/><path class="cls-3" d="M65.33,61.59A.31.31,0,0,1,65,61.3a.36.36,0,0,1,.08-.21.31.31,0,0,1,.42,0,.28.28,0,0,1,.08.21.25.25,0,0,1-.08.19A.3.3,0,0,1,65.33,61.59Z"/><path class="cls-3" d="M34.76,58.68a.26.26,0,0,1-.19-.08.28.28,0,0,1-.1-.21.3.3,0,0,1,.1-.21.3.3,0,0,1,.4,0,.29.29,0,0,1,.08.21.28.28,0,0,1-.08.21A.25.25,0,0,1,34.76,58.68Z"/><path class="cls-3" d="M22.93,69.33a.24.24,0,0,1-.19-.08.28.28,0,0,1-.1-.21.26.26,0,0,1,.1-.2.28.28,0,0,1,.4,0,.24.24,0,0,1,.08.2.27.27,0,0,1-.08.2A.25.25,0,0,1,22.93,69.33Z"/><path class="cls-3" d="M6.66,57.71a.24.24,0,0,1-.19-.08.29.29,0,1,1,.4-.42.31.31,0,0,1,.08.21.27.27,0,0,1-.29.29Z"/><path class="cls-3" d="M52,44.16a.32.32,0,0,1-.2-.08.29.29,0,0,1-.09-.2.28.28,0,0,1,.09-.21.3.3,0,0,1,.41,0,.25.25,0,0,1,.08.21.24.24,0,0,1-.08.2A.32.32,0,0,1,52,44.16Z"/><path class="cls-3" d="M64.35,40.78a.33.33,0,0,1-.2-.08.29.29,0,0,1,0-.42.32.32,0,0,1,.4,0,.32.32,0,0,1,0,.42A.33.33,0,0,1,64.35,40.78Z"/><path class="cls-3" d="M43.15,63.65a.27.27,0,0,1-.2-.08.29.29,0,0,1,0-.42.32.32,0,0,1,.41,0,.32.32,0,0,1,.08.21.39.39,0,0,1-.08.21A.28.28,0,0,1,43.15,63.65Z"/><path class="cls-3" d="M29.83,35.47a.33.33,0,0,1-.19-.08.27.27,0,0,1,0-.42.3.3,0,0,1,.4,0,.29.29,0,0,1,.08.21.24.24,0,0,1-.08.19A.27.27,0,0,1,29.83,35.47Z"/><path class="cls-3" d="M44.62,16.12a.33.33,0,0,1-.19-.08.27.27,0,0,1,0-.42.29.29,0,0,1,.4,0,.26.26,0,0,1,.08.2.29.29,0,0,1-.08.21A.33.33,0,0,1,44.62,16.12Z"/><path class="cls-3" d="M5.68,21a.31.31,0,0,1-.2-.09.25.25,0,0,1-.09-.2.32.32,0,0,1,.08-.2.3.3,0,0,1,.42,0,.32.32,0,0,1,.08.21.28.28,0,0,1-.08.2A.29.29,0,0,1,5.68,21Z"/><path class="cls-3" d="M39.69,4.51a.33.33,0,0,1-.19-.08.28.28,0,0,1-.1-.21A.27.27,0,0,1,39.5,4a.32.32,0,0,1,.4,0,.32.32,0,0,1,0,.42A.33.33,0,0,1,39.69,4.51Z"/><path class="cls-3" d="M53.5,2.09A.3.3,0,0,1,53.3,2a.29.29,0,0,1,0-.42.32.32,0,0,1,.41,0,.32.32,0,0,1,0,.42A.32.32,0,0,1,53.5,2.09Z"/><path class="cls-3" d="M63.85,54.81a.29.29,0,0,1-.29-.29.33.33,0,0,1,.09-.21.29.29,0,0,1,.49.21.25.25,0,0,1-.08.19A.3.3,0,0,1,63.85,54.81Z"/><path class="cls-3" d="M37.23,66.91a.3.3,0,0,1-.2-.08.26.26,0,0,1-.09-.21.27.27,0,0,1,.09-.21.33.33,0,0,1,.41,0,.32.32,0,0,1,0,.42A.28.28,0,0,1,37.23,66.91Z"/><path class="cls-3" d="M69.77,15.15a.33.33,0,0,1-.2-.08.29.29,0,0,1,0-.42.32.32,0,0,1,.41,0,.32.32,0,0,1,0,.42A.39.39,0,0,1,69.77,15.15Z"/><path class="cls-3" d="M14.06,20a.27.27,0,0,1-.2-.08.29.29,0,0,1-.09-.21.34.34,0,0,1,.08-.21.33.33,0,0,1,.42,0,.32.32,0,0,1,0,.42A.28.28,0,0,1,14.06,20Z"/><path class="cls-3" d="M13.07,12.25a.33.33,0,0,1-.21-.09.36.36,0,0,1-.08-.2.33.33,0,0,1,.08-.21.31.31,0,0,1,.42,0,.25.25,0,0,1,.08.21.22.22,0,0,1-.08.19A.26.26,0,0,1,13.07,12.25Z"/><path class="cls-3" d="M19.48,13.7a.42.42,0,0,1-.21-.08.39.39,0,0,1-.08-.21.33.33,0,0,1,.09-.21.32.32,0,0,1,.41,0,.32.32,0,0,1,0,.42A.39.39,0,0,1,19.48,13.7Z"/><path class="cls-3" d="M23.43,10.8a.27.27,0,0,1-.2-.08.29.29,0,0,1,0-.42.29.29,0,0,1,.4.42A.24.24,0,0,1,23.43,10.8Z"/><path class="cls-3" d="M11.23,28.57a.27.27,0,0,1-.2-.08.29.29,0,0,1,0-.42.32.32,0,0,1,.41,0,.32.32,0,0,1,0,.42A.29.29,0,0,1,11.23,28.57Z"/><path class="cls-3" d="M29.34,6.44a.3.3,0,0,1-.2-.08.31.31,0,0,1-.09-.21.33.33,0,0,1,.09-.21.32.32,0,0,1,.41,0,.31.31,0,0,1,.08.21.28.28,0,0,1-.08.21A.32.32,0,0,1,29.34,6.44Z"/><path class="cls-3" d="M33.78,2.58a.3.3,0,0,1-.21-.1.24.24,0,0,1-.08-.19.29.29,0,0,1,.09-.21A.29.29,0,0,1,34,2.5.39.39,0,0,1,33.78,2.58Z"/><path class="cls-3" d="M38.71,9.35a.31.31,0,0,1-.2-.09.24.24,0,0,1-.09-.2.25.25,0,0,1,.09-.21.3.3,0,0,1,.41,0,.28.28,0,0,1,.08.21.26.26,0,0,1-.08.2A.33.33,0,0,1,38.71,9.35Z"/><path class="cls-3" d="M33.29,11.28a.36.36,0,0,1-.2-.08.29.29,0,0,1,0-.42.32.32,0,0,1,.4,0,.29.29,0,0,1,0,.42A.33.33,0,0,1,33.29,11.28Z"/><path class="cls-3" d="M9.62,24.33a.27.27,0,0,1-.2-.08A.33.33,0,0,1,9.33,24a.39.39,0,0,1,.08-.21.32.32,0,0,1,.42,0,.29.29,0,0,1,.08.21.28.28,0,0,1-.08.21A.32.32,0,0,1,9.62,24.33Z"/><path class="cls-3" d="M7.16,37.89A.31.31,0,0,1,7,37.8a.25.25,0,0,1-.09-.2A.32.32,0,0,1,7,37.4a.3.3,0,0,1,.42,0,.32.32,0,0,1,.08.21.28.28,0,0,1-.08.2A.3.3,0,0,1,7.16,37.89Z"/><path class="cls-3" d="M4.2,36.44a.36.36,0,0,1-.2-.08.3.3,0,0,1-.09-.21A.29.29,0,0,1,4,35.94a.32.32,0,0,1,.41,0,.39.39,0,0,1,.08.21.28.28,0,0,1-.08.21A.39.39,0,0,1,4.2,36.44Z"/><path class="cls-3" d="M12.09,42.22a.3.3,0,0,1-.2-.08.27.27,0,0,1-.09-.21.3.3,0,0,1,.08-.2.31.31,0,0,1,.42,0,.28.28,0,0,1,.08.2.3.3,0,0,1-.08.21A.32.32,0,0,1,12.09,42.22Z"/><path class="cls-3" d="M6.17,44.65a.36.36,0,0,1-.2-.08.33.33,0,0,1-.09-.21A.42.42,0,0,1,6,44.15a.32.32,0,0,1,.41,0,.27.27,0,0,1,.09.21.28.28,0,0,1-.08.21A.29.29,0,0,1,6.17,44.65Z"/><path class="cls-3" d="M7.65,46.58a.29.29,0,0,1-.21-.09.28.28,0,0,1-.08-.2.32.32,0,0,1,.08-.21.33.33,0,0,1,.42,0,.32.32,0,0,1,0,.42A.32.32,0,0,1,7.65,46.58Z"/><path class="cls-3" d="M14.55,49a.27.27,0,0,1-.2-.08.33.33,0,0,1-.09-.21.36.36,0,0,1,.08-.2.3.3,0,0,1,.42,0,.31.31,0,0,1,.08.21.27.27,0,0,1-.29.29Z"/><path class="cls-3" d="M23.92,32.56a.34.34,0,0,1-.21-.08.28.28,0,0,1-.08-.2.29.29,0,0,1,.08-.21.31.31,0,0,1,.42,0,.26.26,0,0,1,.08.21.26.26,0,0,1-.08.2A.32.32,0,0,1,23.92,32.56Z"/><path class="cls-3" d="M15.54,55.78a.33.33,0,0,1-.2-.09.25.25,0,0,1-.09-.2.29.29,0,0,1,.08-.21.31.31,0,0,1,.42,0,.32.32,0,0,1,.08.21.3.3,0,0,1-.08.2A.33.33,0,0,1,15.54,55.78Z"/><path class="cls-3" d="M11.59,56.26a.39.39,0,0,1-.21-.08A.42.42,0,0,1,11.3,56a.39.39,0,0,1,.08-.21.33.33,0,0,1,.42,0,.28.28,0,0,1,.08.21.29.29,0,0,1-.08.21A.28.28,0,0,1,11.59,56.26Z"/><path class="cls-3" d="M2.72,59.17a.28.28,0,0,1-.2-.09.25.25,0,0,1-.09-.2.29.29,0,0,1,.08-.21.3.3,0,0,1,.41,0,.29.29,0,0,1,0,.41A.32.32,0,0,1,2.72,59.17Z"/><path class="cls-3" d="M9.13,68.37a.31.31,0,0,1-.2-.09.27.27,0,0,1-.09-.2.29.29,0,0,1,.08-.21.31.31,0,0,1,.42,0,.33.33,0,0,1,.08.21.21.21,0,0,1-.08.19A.26.26,0,0,1,9.13,68.37Z"/><path class="cls-3" d="M21.45,66.43a.24.24,0,0,1-.19-.08.28.28,0,0,1-.1-.21.26.26,0,0,1,.1-.2.28.28,0,0,1,.4,0,.26.26,0,0,1,.08.2.27.27,0,0,1-.08.2A.25.25,0,0,1,21.45,66.43Z"/><path class="cls-3" d="M22,62.56a.27.27,0,0,1-.2-.08.29.29,0,0,1-.09-.21.32.32,0,0,1,.08-.2.3.3,0,0,1,.42,0,.34.34,0,0,1,.08.21.32.32,0,0,1-.08.21A.28.28,0,0,1,22,62.56Z"/><path class="cls-3" d="M22.44,55.29a.27.27,0,0,1-.2-.08.29.29,0,0,1,0-.42.32.32,0,0,1,.41,0,.32.32,0,0,1,0,.42A.28.28,0,0,1,22.44,55.29Z"/><path class="cls-3" d="M24.9,21.91a.26.26,0,0,1-.19-.08.27.27,0,0,1,0-.42.3.3,0,0,1,.4,0,.32.32,0,0,1,0,.42A.28.28,0,0,1,24.9,21.91Z"/><path class="cls-3" d="M47.09,28.21a.3.3,0,0,1-.2-.08.29.29,0,0,1,0-.42.32.32,0,0,1,.41,0,.31.31,0,0,1,.08.21.27.27,0,0,1-.08.2A.29.29,0,0,1,47.09,28.21Z"/><path class="cls-3" d="M32.3,18a.3.3,0,0,1-.2-.08.26.26,0,0,1-.09-.21.3.3,0,0,1,.08-.2.31.31,0,0,1,.42,0,.29.29,0,0,1,.08.2.27.27,0,0,1-.08.2A.25.25,0,0,1,32.3,18Z"/><path class="cls-3" d="M36.74,19a.27.27,0,0,1-.2-.08.29.29,0,0,1-.09-.21.27.27,0,0,1,.09-.21.32.32,0,0,1,.41,0,.32.32,0,0,1,0,.42A.28.28,0,0,1,36.74,19Z"/><path class="cls-3" d="M56.46,8.38a.36.36,0,0,1-.2-.08.29.29,0,0,1-.09-.21.32.32,0,0,1,.08-.21.31.31,0,0,1,.42,0,.32.32,0,0,1,.08.21.24.24,0,0,1-.08.19A.26.26,0,0,1,56.46,8.38Z"/><path class="cls-3" d="M60.4,6a.31.31,0,0,1-.29-.29.33.33,0,0,1,.08-.2.3.3,0,0,1,.42,0,.31.31,0,0,1,.08.21.25.25,0,0,1-.08.19A.3.3,0,0,1,60.4,6Z"/><path class="cls-3" d="M68.29,8.86a.32.32,0,0,1-.2-.08A.29.29,0,0,1,68,8.57a.34.34,0,0,1,.08-.21.33.33,0,0,1,.42,0,.29.29,0,0,1,.08.21.27.27,0,0,1-.29.29Z"/><path class="cls-3" d="M61.39,11.76a.3.3,0,0,1-.2-.08.29.29,0,0,1,0-.42.32.32,0,0,1,.41,0,.32.32,0,0,1,0,.42A.32.32,0,0,1,61.39,11.76Z"/><path class="cls-3" d="M54.48,17.56a.27.27,0,0,1-.19-.08.29.29,0,0,1,0-.42.3.3,0,0,1,.4,0,.29.29,0,0,1,.08.21.26.26,0,0,1-.08.2A.23.23,0,0,1,54.48,17.56Z"/><path class="cls-3" d="M49.06,24.82a.29.29,0,0,1-.2-.5.29.29,0,0,1,.41.42A.39.39,0,0,1,49.06,24.82Z"/><path class="cls-3" d="M48.57,19.5a.31.31,0,0,1-.2-.09.27.27,0,0,1-.09-.2.29.29,0,0,1,.09-.21.3.3,0,0,1,.41,0,.28.28,0,0,1,.08.21.26.26,0,0,1-.08.2A.33.33,0,0,1,48.57,19.5Z"/><path class="cls-3" d="M59.91,25.3a.32.32,0,0,1-.2-.08.29.29,0,0,1,0-.42.32.32,0,0,1,.41,0,.29.29,0,0,1,.08.21.27.27,0,0,1-.29.29Z"/><path class="cls-3" d="M56.33,27.85a.3.3,0,0,1-.2-.08.29.29,0,0,1,0-.42.32.32,0,0,1,.41,0,.32.32,0,0,1,.08.21.39.39,0,0,1-.08.21A.32.32,0,0,1,56.33,27.85Z"/><path class="cls-3" d="M51,33.53a.24.24,0,0,1-.19-.08.27.27,0,0,1,0-.42.3.3,0,0,1,.4,0,.28.28,0,0,1,.08.21.29.29,0,0,1-.29.29Z"/><path class="cls-3" d="M35.75,36.92a.3.3,0,0,1-.2-.08.31.31,0,0,1-.09-.21.29.29,0,0,1,.09-.2.3.3,0,0,1,.41,0,.29.29,0,0,1-.21.49Z"/><path class="cls-3" d="M30.33,53.84a.27.27,0,0,1-.2-.08.29.29,0,0,1,0-.42.32.32,0,0,1,.41,0,.32.32,0,0,1,.08.21.39.39,0,0,1-.08.21A.28.28,0,0,1,30.33,53.84Z"/><path class="cls-3" d="M36.24,54.32a.27.27,0,0,1-.19-.08.27.27,0,0,1,0-.42.3.3,0,0,1,.4,0,.29.29,0,0,1,.08.21.26.26,0,0,1-.08.2A.24.24,0,0,1,36.24,54.32Z"/><path class="cls-3" d="M28.85,59.65a.39.39,0,0,1-.2-.08.29.29,0,0,1-.09-.21.27.27,0,0,1,.09-.21.32.32,0,0,1,.41,0,.28.28,0,0,1,.08.21.29.29,0,0,1-.08.21A.39.39,0,0,1,28.85,59.65Z"/><path class="cls-3" d="M37.72,42.71a.24.24,0,0,1-.19-.08.27.27,0,0,1,0-.42.3.3,0,0,1,.4,0,.31.31,0,0,1,.08.21.29.29,0,0,1-.08.21A.39.39,0,0,1,37.72,42.71Z"/><path class="cls-3" d="M21,45.62a.36.36,0,0,1-.2-.08.29.29,0,0,1,0-.42.32.32,0,0,1,.41,0,.29.29,0,0,1,.08.21.22.22,0,0,1-.08.19A.3.3,0,0,1,21,45.62Z"/><path class="cls-3" d="M50.54,52.87a.27.27,0,0,1-.2-.08.29.29,0,0,1,0-.42.32.32,0,0,1,.41,0,.29.29,0,0,1-.21.5Z"/><path class="cls-3" d="M51.53,60.13a.32.32,0,0,1-.2-.08.27.27,0,0,1-.09-.21.25.25,0,0,1,.09-.2.3.3,0,0,1,.41,0,.28.28,0,0,1,.08.2.26.26,0,0,1-.08.2A.25.25,0,0,1,51.53,60.13Z"/><path class="cls-3" d="M31.31,23.84a.24.24,0,0,1-.19-.08.32.32,0,0,1-.1-.21.26.26,0,0,1,.09-.19.3.3,0,0,1,.41,0,.31.31,0,0,1,.08.21.29.29,0,0,1-.29.29Z"/><path class="cls-3" d="M44,32.92a.3.3,0,0,1-.2-.08.31.31,0,0,1-.09-.2.33.33,0,0,1,.09-.21.3.3,0,0,1,.41,0,.28.28,0,0,1,.08.21.26.26,0,0,1-.08.2A.32.32,0,0,1,44,32.92Z"/><path class="cls-3" d="M1.73,70.3a.24.24,0,0,1-.19-.08.27.27,0,0,1,0-.42.3.3,0,0,1,.4,0,.29.29,0,0,1-.21.5Z"/><path class="cls-3" d="M55,39.82a.31.31,0,0,1-.2-.09.25.25,0,0,1-.09-.2.26.26,0,0,1,.09-.21.28.28,0,0,1,.39,0,.26.26,0,0,1,.1.21.3.3,0,0,1-.08.2A.3.3,0,0,1,55,39.82Z"/><path class="cls-3" d="M69.28,47.06a.28.28,0,0,1-.2-.08.29.29,0,0,1,0-.42.32.32,0,0,1,.4,0,.28.28,0,0,1,.08.21.32.32,0,0,1-.08.21A.24.24,0,0,1,69.28,47.06Z"/><path class="cls-3" d="M66.81,52.39a.28.28,0,0,1-.2-.09.29.29,0,0,1-.09-.2.29.29,0,0,1,.09-.21.3.3,0,0,1,.41,0,.28.28,0,0,1,.08.21.22.22,0,0,1-.08.19A.26.26,0,0,1,66.81,52.39Z"/><path class="cls-3" d="M57.44,57.22a.24.24,0,0,1-.19-.08.3.3,0,0,1-.1-.21.36.36,0,0,1,.08-.19.3.3,0,0,1,.42,0,.29.29,0,0,1,.08.2.27.27,0,0,1-.08.2A.26.26,0,0,1,57.44,57.22Z"/><path class="cls-3" d="M60.89,66a.28.28,0,0,1-.19-.5.3.3,0,0,1,.4,0,.29.29,0,0,1,.08.21.28.28,0,0,1-.08.21A.36.36,0,0,1,60.89,66Z"/><path class="cls-3" d="M66.32,69.82a.36.36,0,0,1-.2-.08.3.3,0,0,1-.09-.21.29.29,0,0,1,.09-.21.32.32,0,0,1,.41,0,.32.32,0,0,1,.08.21.3.3,0,0,1-.08.2A.25.25,0,0,1,66.32,69.82Z"/><path class="cls-3" d="M57.94,63a.3.3,0,0,1-.2-.08.27.27,0,0,1-.09-.21.25.25,0,0,1,.09-.2.27.27,0,0,1,.39,0,.25.25,0,0,1,.1.2.34.34,0,0,1-.08.21A.31.31,0,0,1,57.94,63Z"/><path class="cls-3" d="M43.64,68.85a.36.36,0,0,1-.2-.08.29.29,0,0,1,0-.42.32.32,0,0,1,.41,0,.29.29,0,0,1,.08.21.29.29,0,0,1-.29.29Z"/><path class="cls-3" d="M31.68,66.92a.29.29,0,0,1-.2-.09.25.25,0,0,1-.09-.2.26.26,0,0,1,.09-.21.3.3,0,0,1,.41,0,.29.29,0,0,1,.08.21.26.26,0,0,1-.08.19A.3.3,0,0,1,31.68,66.92Z"/><path class="cls-3" d="M.75,31.11A.3.3,0,0,1,.55,31a.3.3,0,0,1-.09-.21.29.29,0,0,1,.09-.21.32.32,0,0,1,.41,0,.39.39,0,0,1,.08.21A.32.32,0,0,1,1,31,.28.28,0,0,1,.75,31.11Z"/><path class="cls-3" d="M10.61,6.92a.27.27,0,0,1-.29-.29.28.28,0,0,1,.08-.2.31.31,0,0,1,.42,0,.29.29,0,0,1,0,.4A.25.25,0,0,1,10.61,6.92Z"/><path class="cls-3" d="M67.8,34.5a.36.36,0,0,1-.2-.08.29.29,0,0,1,0-.42A.33.33,0,0,1,68,34a.32.32,0,0,1,0,.42A.28.28,0,0,1,67.8,34.5Z"/></pattern><clipPath id="clip-path"><rect class="cls-1" width="1280" height="800"/></clipPath><clipPath id="clip-path-3"><rect class="cls-1" x="-9" y="-7" width="1298" height="808"/></clipPath></defs><title>CDB768</title><g class="cls-4"><g id="Layer_1" data-name="Layer 1"><rect class="cls-5" width="1280" height="800"/><g class="cls-6"><rect class="cls-5" width="1280" height="800"/><g class="cls-6"><g class="cls-7"><rect class="cls-5" x="-9" y="-7" width="1298" height="808"/><g class="cls-8"><rect class="cls-5" width="1280" height="800"/></g></g></g></g></g></g></svg>