{
	"asset":{
		"generator":"Khronos glTF Blender I/O v4.1.63",
		"version":"2.0"
	},
	"scene":0,
	"scenes":[
		{
			"name":"Scene",
			"nodes":[
				0
			]
		}
	],
	"nodes":[
		{
			"mesh":0,
			"name":"Wooden log piece"
		}
	],
	"materials":[
		{
			"doubleSided":true,
			"name":"woodlog_4",
			"normalTexture":{
				"index":0
			},
			"pbrMetallicRoughness":{
				"baseColorTexture":{
					"index":1
				},
				"metallicFactor":0,
				"metallicRoughnessTexture":{
					"index":2
				}
			}
		}
	],
	"meshes":[
		{
			"name":"Model.003",
			"primitives":[
				{
					"attributes":{
						"POSITION":0,
						"NORMAL":1,
						"TEXCOORD_0":2
					},
					"indices":3,
					"material":0
				}
			]
		}
	],
	"textures":[
		{
			"sampler":0,
			"source":0
		},
		{
			"sampler":0,
			"source":1
		},
		{
			"sampler":0,
			"source":2
		}
	],
	"images":[
		{
			"mimeType":"image/png",
			"name":"woodlog_4_normal-1K",
			"uri":"woodlog_4_normal-1K.png"
		},
		{
			"mimeType":"image/png",
			"name":"woodlog_4_basecolor-1K",
			"uri":"woodlog_4_basecolor-1K.png"
		},
		{
			"mimeType":"image/png",
			"name":"woodlog_4_roughness-1K",
			"uri":"woodlog_4_roughness-1K.png"
		}
	],
	"accessors":[
		{
			"bufferView":0,
			"componentType":5126,
			"count":27911,
			"max":[
				0.22891026735305786,
				0.2563633620738983,
				0.1340751349925995
			],
			"min":[
				-0.27141720056533813,
				0.0010482838843017817,
				-0.15407107770442963
			],
			"type":"VEC3"
		},
		{
			"bufferView":1,
			"componentType":5126,
			"count":27911,
			"type":"VEC3"
		},
		{
			"bufferView":2,
			"componentType":5126,
			"count":27911,
			"type":"VEC2"
		},
		{
			"bufferView":3,
			"componentType":5123,
			"count":149997,
			"type":"SCALAR"
		}
	],
	"bufferViews":[
		{
			"buffer":0,
			"byteLength":334932,
			"byteOffset":0,
			"target":34962
		},
		{
			"buffer":0,
			"byteLength":334932,
			"byteOffset":334932,
			"target":34962
		},
		{
			"buffer":0,
			"byteLength":223288,
			"byteOffset":669864,
			"target":34962
		},
		{
			"buffer":0,
			"byteLength":299994,
			"byteOffset":893152,
			"target":34963
		}
	],
	"samplers":[
		{
			"magFilter":9729,
			"minFilter":9987
		}
	],
	"buffers":[
		{
			"byteLength":1193148,
			"uri":"woodlog.bin"
		}
	]
}
